<?xml version="1.0" standalone="no"?><!DOCTYPE svg PUBLIC "-//W3C//DTD SVG 1.1//EN" "http://www.w3.org/Graphics/SVG/1.1/DTD/svg11.dtd"><svg t="1728549623239" class="icon" viewBox="0 0 1024 1024" version="1.1" xmlns="http://www.w3.org/2000/svg" p-id="34480" xmlns:xlink="http://www.w3.org/1999/xlink" width="64" height="64"><path d="M655.72818 701.15236c52.684225-44.841228 52.684225-134.531356 52.684224-134.531356 196.051895 166.91967 56.369858 438.479101-201.137378 438.479101s-338.717723-123.750592-302.18355-274.036974c17.607431-72.466217 29.251116-174.398322 29.251116-174.398322 87.799371 74.740494 93.659566 184.358352 93.659565 184.358352 0-115.988135 29.266457-158.892584 55.127251-230.887071 36.580195-101.866906-2.458367-239.612165-2.458367-239.612165 278.99973 116.237423 275.057139 430.628434 275.057139 430.628435z" fill="#FFE399" p-id="34481"></path><path d="M614.929258 49.435805s-47.226727 114.841408-2.968449 259.585918c31.283775 102.319461 66.694232 163.28773 66.694232 328.117213 0 0 7.083625-155.782232 113.311161-261.990591 0 0 14.086712 144.859566 35.391281 247.82334 44.200749 213.594127-54.049558 389.445993-365.598682 389.445993S-18.784839 626.511581 218.418816 389.307925c0 0 0 127.451566 63.729618 191.173513-0.011506 0.00767-77.900704-438.996854 332.780824-531.045633z" fill="#FF8282" p-id="34482"></path><path d="M618.848839 777.722247c41.408719-35.241708 41.408719-105.732794 41.408719-105.732794 154.087071 131.190891 44.3043 344.61627-158.083356 344.61627-202.38382 0-266.213154-97.256989-237.498966-215.377498 13.837423-56.952809 22.988225-137.062592 22.988225-137.062592 69.003026 58.740015 73.609109 144.894082 73.609108 144.894082 0-91.162846 23.003566-124.881978 43.326322-181.462771 28.748704-80.059925-1.929109-188.32012-1.929108-188.32012 219.281738 91.350772 216.179056 338.445423 216.179056 338.445423z" fill="#FFDC80" p-id="34483"></path><path d="M402.673618 439.276824s182.068734 46.056989 182.068734 343.323805c0 0 25.124434 92.110142 79.549843 37.680899 54.429243-54.429243 84.539446 19.383131 21.277723 109.395416 0 0 140.195955-124.866637-25.31236-257.687491 0 0-42.589963 180.937348-42.589962 81.245004 0-99.692345-99.293483-294.635865-214.993978-313.957633z" fill="#FFE6A6" p-id="34484"></path><path d="M523.582322 726.917273s-14.362846 50.659236-0.905109 88.121528c9.511311 26.478262 20.272899 42.260135 20.272899 84.919132 0 0 2.159221-40.319521 34.451656-67.806442 0 0 4.272419 37.489139 10.753917 64.139985 13.434727 55.272989-16.430022 100.789213-111.136599 100.789213s-146.079161-99.876434-73.973453-161.270412c0 0 0 32.990442 19.371625 49.481828-0.003835 0-1.449708-115.62379 101.165064-158.374832z" fill="#FFF7E3" p-id="34485"></path><path d="M801.956914 489.859356c2.884075 29.346996 7.056779 59.472539 13.093393 86.510741-4.958921-28.9443-9.369408-58.870412-13.093393-86.510741zM280.495461 536.602846c0 0.003835-6.753798-35.345258-5.860195-87.454202a633.39961 633.39961 0 0 0-1.054682 80.497139 129.840899 129.840899 0 0 0 6.914877 6.957063z m543.368149 86.821394a1346.65588 1346.65588 0 0 1-1.837063-9.074098c26.106247 182.436914-65.386427 326.667506-360.037633 326.667506-304.338936 0-453.578307-317.202217-246.642098-538.961498-0.425708-7.766292-0.425708-12.29567-0.425707-12.295671-237.203655 237.203655-68.209139 623.109753 243.339985 623.109753 311.556794 0 409.807101-175.851865 365.602516-389.445992z" fill="#D66D6D" opacity=".28" p-id="34486"></path></svg>