<?xml version="1.0" standalone="no"?><!DOCTYPE svg PUBLIC "-//W3C//DTD SVG 1.1//EN" "http://www.w3.org/Graphics/SVG/1.1/DTD/svg11.dtd"><svg t="1728549479318" class="icon" viewBox="0 0 1024 1024" version="1.1" xmlns="http://www.w3.org/2000/svg" p-id="25574" xmlns:xlink="http://www.w3.org/1999/xlink" width="64" height="64"><path d="M573.20186 279.917147c188.709705 0 341.134884 154.496992 341.881055 344.794295 0.269891 70.235287-24.933209 75.315597-92.429892 47.02462-100.399628-42.055442-206.205023-41.253705-272.757085 40.99969-75.410853 93.176062-124.189767 141.851783-195.599876 112.163721-70.878264-29.449922-122.967318-105.416434-122.967318-200.195969 0-190.289364 153.163411-344.786357 341.873116-344.786357z" fill="#FFCB01" p-id="25575"></path><path d="M236.028031 661.511938a80.77693 80.77693 0 1 0 161.561798 0c0-44.619411-36.165457-80.784868-80.784868-80.784868-44.611473 0-80.77693 36.165457-80.77693 80.784868zM702.471938 507.776992a53.851287 53.851287 0 1 0 107.710512 0 53.851287 53.851287 0 0 0-107.71845 0zM273.884279 453.917767a53.851287 53.851287 0 1 0 107.710512 0 53.851287 53.851287 0 0 0-107.710512 0zM594.761426 359.670078a53.859225 53.859225 0 1 0 107.71845 0 53.859225 53.859225 0 0 0-107.71845 0zM413.259411 337.213519a53.867163 53.867163 0 1 0 107.734325-0.015876 53.867163 53.867163 0 0 0-107.734325 0.015876z" p-id="25576"></path><path d="M513.412961 150.56769c-239.092093 0-433.413953 195.671318-433.413953 436.827287 0 151.877457 102.4 266.017736 225.994418 280.837953 81.68186 9.787535 174.397519-22.980465 253.618605-120.91138 26.830388-33.204589 54.692713-54.653023 85.333333-65.115286 46.992868-16.042667 99.462946-6.22338 161.617365 19.829085 43.897054 18.384372 74.458295 17.400062 94.779535 7.144186 15.39969-7.771287 27.147907-20.900713 34.688992-40.190016 7.620465-19.400434 10.954419-46.992868 10.795659-81.713612-0.952558-241.132155-194.32186-436.708217-433.413954-436.708217z m0 63.503876c204.244341 0 369.116279 167.451783 369.910078 373.450418 0.07938 21.34524-0.873178 39.102512-4.524651 52.708218-1.508217 5.469271-2.222636 10.311442-6.032869 12.24831-2.619535 1.301829-5.874109 0.976372-9.8431 0.531845-8.811163-1.016062-19.289302-4.318264-31.831318-9.557334-79.300465-33.236341-146.693953-41.817302-206.705117-21.353178-40.642481 13.891473-78.506667 41.190202-114.148217 85.293643-61.916279 76.56186-132.802481 105.440248-196.703255 97.788031-94.779535-11.367194-170.031628-101.368062-170.031628-217.778604 0-205.966884 165.665736-373.323411 369.910077-373.323411z" p-id="25577"></path></svg>