<?xml version="1.0" standalone="no"?><!DOCTYPE svg PUBLIC "-//W3C//DTD SVG 1.1//EN" "http://www.w3.org/Graphics/SVG/1.1/DTD/svg11.dtd"><svg t="1723700964224" class="icon" viewBox="0 0 1024 1024" version="1.1" xmlns="http://www.w3.org/2000/svg" p-id="44855" xmlns:xlink="http://www.w3.org/1999/xlink" width="16" height="16"><path d="M768 128a128 128 0 0 1 127.786667 120.490667L896 256v512a128 128 0 0 1-120.490667 127.786667L768 896H256a128 128 0 0 1-127.786667-120.490667L128 768V256a128 128 0 0 1 120.490667-127.786667L256 128h512z m0 64H256A64 64 0 0 0 192 256v512A64 64 0 0 0 256 832h512a64 64 0 0 0 64-64V256A64 64 0 0 0 768 192z" fill="currentColor" p-id="44856"></path><path d="M705.28 406.613333l-225.834667 225.834667a74.666667 74.666667 0 0 1-105.557333 0L297.386667 555.946667a32 32 0 0 1 45.226666-45.226667l76.501334 76.501333a10.666667 10.666667 0 0 0 15.104 0L660.053333 361.386667a32 32 0 0 1 45.226667 45.226666z" fill="currentColor" p-id="44857"></path></svg>