<?xml version="1.0" standalone="no"?><!DOCTYPE svg PUBLIC "-//W3C//DTD SVG 1.1//EN" "http://www.w3.org/Graphics/SVG/1.1/DTD/svg11.dtd"><svg t="1723703314619" class="icon" viewBox="0 0 1024 1024" version="1.1" xmlns="http://www.w3.org/2000/svg" p-id="61234" xmlns:xlink="http://www.w3.org/1999/xlink" width="18" height="18"><path d="M449.6384 69.461333c113.4592-16.725333 232.465067 13.8752 325.0688 81.152 25.0368 18.244267 48.401067 38.929067 69.256533 61.866667 28.603733 32.836267 54.5792 68.522667 72.192 108.526933 1.024 12.970667 0.989867 27.409067-7.236266 38.2976-15.496533 22.084267-51.080533 23.381333-69.905067 4.9664-6.331733-7.3216-9.847467-16.503467-14.472533-24.900266-3.191467-11.912533-11.383467-21.367467-17.8176-31.624534-8.362667-10.871467-15.991467-22.391467-25.719467-32.136533-14.2848-16.452267-29.576533-32.187733-47.104-45.226667-34.781867-28.586667-75.810133-48.520533-118.289067-62.839466-57.070933-17.681067-118.766933-20.6336-177.186133-8.004267-75.690667 15.394133-145.527467 56.968533-196.113067 115.2-9.693867 11.0592-18.261333 23.022933-26.9824 34.850133-20.206933 30.1056-35.976533 63.061333-47.342933 97.467734-20.650667 65.28-21.3504 136.482133-3.072 202.376533 25.224533 92.023467 89.019733 173.141333 173.568 217.736533 18.2784 10.0864 37.870933 17.339733 57.1904 25.122134 77.960533 28.757333 166.4512 27.374933 243.575467-3.4816 33.604267-13.499733 65.621333-31.3344 93.7984-54.152534 24.354133-19.3024 46.097067-41.7792 65.245866-66.218666 9.096533-11.5712 16.2304-24.507733 24.746667-36.5056-28.0576 0.256-56.098133 0.068267-84.155733 0.1024-13.841067 0.034133-28.910933-4.4544-37.410134-16.042667-9.130667-10.769067-10.581333-25.975467-8.311466-39.406933 1.8944-13.397333 11.400533-25.1904 23.808-30.378667 7.441067-3.362133 15.684267-4.215467 23.773866-4.1984 54.596267 0.034133 109.175467 0.017067 163.771734 0.017067 10.052267 0.068267 20.5312-0.648533 30.0544 3.259733 9.0112 3.566933 17.698133 9.5744 21.9136 18.5856 4.590933 8.6016 5.8368 18.500267 5.666133 28.142933-0.0512 57.429333 0 114.858667-0.034133 172.270934 0.085333 9.437867-1.621333 19.0976-6.587734 27.255466-10.581333 19.080533-36.625067 24.6784-56.081066 17.3056-15.223467-4.932267-25.9584-19.9168-26.845867-35.720533-1.092267-17.032533-0.2048-34.116267-0.512-51.1488-37.4784 51.131733-86.101333 94.532267-142.8992 123.0336-20.0704 10.3936-41.3696 18.193067-62.344533 26.5216-38.877867 14.967467-80.145067 22.784-121.565867 26.3168-78.2848 5.8368-157.883733-9.847467-228.488533-44.0832-59.0848-28.740267-112.1792-70.263467-153.105067-121.770667C111.0016 727.569067 77.4144 647.6288 68.181333 564.906667c-12.219733-98.6624 10.888533-200.925867 62.5664-285.678934 19.0976-31.658667 42.3936-60.689067 68.539734-86.801066 21.930667-21.060267 45.8752-39.9872 71.0656-57.002667 54.306133-34.065067 115.490133-57.992533 179.285333-65.962667z" p-id="61235" fill="currentColor"></path><path d="M378.606933 352.631467c15.291733-6.229333 33.5872-0.9728 44.6976 10.837333 29.508267 29.713067 59.272533 59.1872 88.797867 88.900267 31.761067-30.225067 61.917867-62.1568 93.508267-92.5696 11.281067-9.5744 27.972267-12.6976 41.710933-6.8096 14.574933 5.512533 24.4736 19.5072 27.9552 34.304 1.860267 10.0864-2.440533 19.729067-7.424 28.228266-5.239467 7.611733-12.458667 13.533867-18.824533 20.155734-25.7536 25.361067-50.961067 51.285333-76.765867 76.612266 26.487467 26.7264 53.2992 53.111467 79.752533 79.837867 7.68 7.8336 16.571733 15.2576 20.2752 25.9584 3.037867 5.768533 3.822933 12.305067 3.089067 18.7392-3.140267 15.479467-13.6704 29.815467-28.808533 35.3792-8.789333 4.590933-19.746133 4.625067-28.552534 0.0512-10.683733-3.7376-18.107733-12.629333-25.941333-20.309333-26.709333-26.436267-53.077333-53.213867-79.752533-79.6672a8034.599253 8034.599253 0 0 1-89.412267 89.463466c-5.973333 6.3488-14.011733 9.728-21.8624 13.056-24.661333 5.0176-50.7904-16.4864-51.012267-41.6256-0.512-11.7248 4.881067-23.057067 13.090134-31.232 29.405867-30.242133 59.8016-59.562667 89.275733-89.7536-28.245333-28.16-56.337067-56.507733-84.667733-84.616533-6.673067-6.212267-12.9536-13.294933-15.616-22.237867-7.662933-20.957867 5.819733-45.653333 26.487466-52.701866z" p-id="61236" fill="currentColor"></path></svg>