<?xml version="1.0" standalone="no"?><!DOCTYPE svg PUBLIC "-//W3C//DTD SVG 1.1//EN" "http://www.w3.org/Graphics/SVG/1.1/DTD/svg11.dtd"><svg t="1723704580827" class="icon" viewBox="0 0 1024 1024" version="1.1" xmlns="http://www.w3.org/2000/svg" p-id="18464" xmlns:xlink="http://www.w3.org/1999/xlink" width="18" height="18"><path d="M512 42.666667c259.072 0 469.333333 210.261333 469.333333 469.333333 0 259.114667-210.261333 469.333333-469.333333 469.333333S42.666667 771.114667 42.666667 512C42.666667 252.928 252.928 42.666667 512 42.666667z m0 85.333333c-211.925333 0-384 172.074667-384 384 0 211.968 172.032 384 384 384s384-172.032 384-384c0-211.925333-172.074667-384-384-384zM376.448 316.074667L512 451.669333l135.552-135.594666a42.666667 42.666667 0 0 1 56.32-3.541334l4.053333 3.541334a42.666667 42.666667 0 0 1 0 60.373333L572.330667 512l135.594666 135.552a42.666667 42.666667 0 1 1-60.373333 60.373333L512 572.330667l-135.552 135.594666a42.666667 42.666667 0 0 1-56.32 3.541334l-4.053333-3.541334a42.666667 42.666667 0 0 1 0-60.373333L451.669333 512 316.074667 376.448a42.666667 42.666667 0 0 1 60.373333-60.373333z" fill="currentColor" p-id="18465"></path></svg>