<?xml version="1.0" standalone="no"?><!DOCTYPE svg PUBLIC "-//W3C//DTD SVG 1.1//EN" "http://www.w3.org/Graphics/SVG/1.1/DTD/svg11.dtd"><svg t="1723703327454" class="icon" viewBox="0 0 1024 1024" version="1.1" xmlns="http://www.w3.org/2000/svg" p-id="62209" xmlns:xlink="http://www.w3.org/1999/xlink" width="18" height="18"><path d="M302.0288 117.742933C372.906667 80.042667 453.956267 61.610667 534.186667 65.4336c29.9008 1.877333 59.784533 5.9392 88.866133 13.226667 46.6432 11.9808 91.170133 31.761067 131.7888 57.565866 22.4256 15.2064 43.793067 31.982933 63.709867 50.346667 51.336533 48.657067 90.862933 109.6192 114.466133 176.264533 24.849067 69.922133 32.3584 145.988267 20.48 219.306667-5.597867 39.441067-17.783467 77.687467-33.860267 114.056533-13.909333 29.730133-30.0032 58.606933-50.432 84.394667-77.9776 104.994133-204.509867 171.537067-335.0016 177.7152-40.465067 2.628267-81.1008-1.809067-120.7296-10.001067-37.649067-8.004267-73.2672-22.954667-108.4928-38.109866-32.938667-16.128-64.324267-35.925333-91.5456-60.6208-22.869333-20.309333-43.6736-42.990933-61.576533-67.822934-0.0512 15.940267 0.290133 31.8976-0.170667 47.8208-0.290133 11.093333-4.181333 22.2208-12.253866 30.0544-19.712 19.2-58.453333 16.008533-71.645867-9.284266-4.471467-7.867733-5.973333-16.9984-5.905067-25.941334-0.034133-58.0608-0.017067-116.138667-0.017066-174.199466-0.2048-11.844267 2.6624-24.149333 10.308266-33.450667 6.434133-6.912 15.1552-11.554133 24.354134-13.602133 7.560533-1.399467 15.274667-1.109333 22.9376-1.1264 55.1424 0.017067 110.2848-0.017067 165.444266 0.017066 12.8-0.221867 26.112 3.754667 35.2256 13.090134 10.820267 10.888533 13.2608 27.4432 10.769067 42.052266-1.194667 9.796267-6.9632 18.466133-14.1824 24.951467-9.352533 7.509333-21.691733 10.1376-33.450667 9.9328-27.409067-0.1024-54.818133 0.1536-82.2272-0.136533 11.707733 17.476267 22.4256 35.7888 36.864 51.2512 21.6064 25.770667 46.984533 48.2816 74.5472 67.515733 29.303467 19.729067 61.371733 35.2768 94.9248 46.2848 77.346133 24.4224 163.498667 20.974933 237.9776-11.5712 53.0944-19.985067 100.983467-53.469867 138.2912-96.1536 38.058667-43.861333 66.013867-96.802133 78.848-153.5488 14.7456-61.525333 12.6464-127.0272-6.075733-187.460267-12.612267-37.870933-29.917867-74.478933-53.6576-106.683733-27.8016-38.929067-63.3856-72.465067-104.413867-97.143467-82.926933-51.729067-187.869867-66.2528-281.8048-39.304533-32.477867 9.591467-63.488 23.8592-92.689066 40.942933-17.322667 11.4176-33.928533 23.927467-49.800534 37.290667-25.6512 24.183467-48.9984 50.926933-67.703466 80.878933-4.608 5.819733-5.444267 13.448533-9.1648 19.729067-4.027733 6.8096-6.792533 14.472533-12.253867 20.3776-18.858667 18.346667-54.3744 17.032533-69.853867-5.034667-8.226133-10.888533-8.260267-25.326933-7.2192-38.280533 12.424533-28.091733 28.859733-54.3232 47.633067-78.574933 38.7584-51.797333 89.4976-94.327467 146.5344-124.706134z" p-id="62210" fill="currentColor"></path><path d="M379.8016 352.187733c16.384-6.109867 35.072 0.938667 46.08 13.841067 28.672 28.910933 57.565867 57.582933 86.340267 86.391467 29.969067-29.166933 59.306667-58.965333 88.866133-88.558934 8.277333-8.618667 20.0192-14.267733 32.119467-13.824 24.490667 0.238933 45.585067 25.070933 41.864533 49.2032-2.8672 9.045333-7.0144 17.954133-14.08 24.5248-29.730133 29.354667-59.016533 59.170133-88.7296 88.541867 26.487467 26.692267 53.265067 53.077333 79.7184 79.786667 7.697067 7.850667 16.605867 15.3088 20.3264 26.026666 3.003733 5.751467 3.822933 12.270933 3.072 18.670934-3.106133 15.479467-13.653333 29.815467-28.757333 35.396266-14.882133 8.021333-32.8704 0.853333-44.219734-10.018133-30.225067-29.7472-59.972267-60.0064-90.077866-89.890133-29.013333 29.525333-58.350933 58.760533-87.739734 87.9104-7.304533 7.5264-16.776533 12.936533-27.016533 15.121066-23.6032 2.4576-47.274667-18.158933-47.530667-42.0864-0.4608-11.281067 4.420267-22.340267 12.2368-30.327466 29.559467-30.72 60.5184-60.125867 90.112-90.811734-26.043733-25.7536-51.729067-51.8656-77.755733-77.653333-8.5504-8.8064-19.012267-16.861867-22.545067-29.201067-7.748267-21.4016 6.468267-46.455467 27.716267-53.0432z" p-id="62211" fill="currentColor"></path></svg>