<?xml version="1.0" standalone="no"?><!DOCTYPE svg PUBLIC "-//W3C//DTD SVG 1.1//EN" "http://www.w3.org/Graphics/SVG/1.1/DTD/svg11.dtd"><svg t="1723703355519" class="icon" viewBox="0 0 1024 1024" version="1.1" xmlns="http://www.w3.org/2000/svg" p-id="63542" xmlns:xlink="http://www.w3.org/1999/xlink" width="18" height="18"><path d="M473.736533 66.235733c46.216533-3.976533 92.945067-0.068267 138.222934 9.762134 66.338133 15.394133 129.4848 45.6192 181.930666 89.2416 42.8032 34.321067 78.574933 77.192533 105.728 124.808533 3.037867 5.376 5.7344 11.025067 10.069334 15.5136 8.209067 8.5504 12.5952 20.565333 11.810133 32.392533-0.648533 13.0048-7.611733 25.429333-18.261333 32.887467-13.2096 9.659733-32.034133 10.632533-46.250667 2.577067-9.147733-4.881067-15.650133-13.3632-19.985067-22.596267-37.154133-74.6496-100.983467-135.492267-177.169066-169.301333-61.969067-27.767467-131.822933-37.256533-199.0144-27.733334-58.026667 8.123733-114.005333 30.634667-161.399467 65.109334-46.045867 33.058133-84.189867 77.073067-110.1824 127.453866-2.0992 3.959467-5.4272 7.0656-7.594667 10.990934-5.922133 10.4448-16.4864 18.090667-28.228266 20.5312-13.431467 2.986667-28.16-0.8704-38.314667-10.1888-12.868267-11.298133-17.851733-30.583467-11.9296-46.677334 2.645333-8.328533 9.045333-14.592 12.9536-22.237866 18.0224-33.4848 40.465067-64.546133 66.321067-92.416 24.132267-26.129067 52.002133-48.554667 81.237333-68.693334 62.634667-40.789333 135.441067-65.9456 210.056533-71.424z" p-id="63543" fill="currentColor"></path><path d="M350.173867 388.9152c1.774933-19.848533 18.961067-37.034667 38.826666-38.741333 12.731733-1.262933 25.565867 4.181333 34.321067 13.312 29.559467 29.7472 59.2896 59.2896 88.917333 88.968533 29.9008-29.2352 59.306667-58.965333 88.832-88.576 8.2944-8.635733 20.036267-14.267733 32.136534-13.858133 23.995733 0.273067 44.714667 24.064 42.069333 47.752533-2.3552 10.103467-7.4752 19.694933-15.086933 26.8288-29.4912 29.064533-58.487467 58.606933-87.9104 87.722667 25.941333 26.129067 52.155733 51.985067 78.08 78.1312 8.174933 8.448 17.834667 16.2304 21.981866 27.630933 4.488533 8.840533 4.334933 19.6608-0.136533 28.484267-4.539733 12.288-14.933333 21.8112-27.118933 26.299733-8.465067 3.9424-18.670933 3.6352-27.016534-0.529067-10.990933-4.010667-18.653867-13.192533-26.760533-21.1456-26.436267-26.197333-52.565333-52.6848-78.967467-78.916266-29.0304 29.4912-58.333867 58.7264-87.722666 87.876266-9.6768 9.6256-23.278933 17.288533-37.341867 15.069867-15.684267-3.498667-30.276267-14.6432-35.1744-30.344533-5.1712-14.455467-0.5632-31.214933 10.1376-41.966934 29.678933-30.600533 60.279467-60.296533 90.231467-90.624-29.678933-29.696-59.306667-59.460267-89.088-89.070933-9.079467-8.772267-14.4896-21.6064-13.2096-34.304z" p-id="63544" fill="currentColor"></path><path d="M138.939733 651.127467c15.2064-3.2256 31.829333 2.474667 41.7792 14.421333 5.2224 5.666133 7.543467 13.124267 10.820267 19.933867 36.949333 69.034667 96.836267 125.4912 167.953067 158.293333 58.9824 27.426133 125.457067 38.229333 190.122666 31.505067 60.416-6.126933 119.227733-27.8016 169.045334-62.549334 50.0736-34.525867 91.255467-81.8688 118.459733-136.277333 4.5568-9.0624 11.3152-17.3568 20.616533-21.794133 14.455467-7.406933 33.1264-5.239467 45.448534 5.376 12.458667 10.154667 17.92 27.869867 13.4144 43.3152-2.321067 9.079467-8.8576 16.110933-12.919467 24.388266-15.069867 28.689067-34.816 54.596267-55.808 79.172267-17.595733 20.48-37.5808 38.775467-58.6752 55.586133-4.437333 4.727467-8.721067 9.642667-14.472533 12.8512-35.618133 25.582933-75.758933 44.168533-116.906667 58.965334-60.245333 20.974933-125.013333 29.0304-188.535467 23.005866-65.297067-5.461333-128.392533-27.170133-185.821866-58.1632-28.689067-16.315733-56.0128-35.293867-79.633067-58.453333-12.868267-11.707733-24.4224-24.712533-35.822933-37.819733-9.386667-13.738667-20.394667-26.299733-29.661867-40.123734-10.1376-13.653333-17.7664-28.910933-26.368-43.537066-5.563733-8.2432-8.3968-18.261333-7.7824-28.2112 0.938667-19.114667 15.940267-36.369067 34.747733-39.8848z" p-id="63545" fill="currentColor"></path></svg>