<?xml version="1.0" encoding="UTF-8" standalone="no"?>
<svg
   t="1730193079678"
   class="icon"
   viewBox="0 0 1024 1024"
   version="1.1"
   p-id="60825"
   width="32"
   height="32"
   id="svg110"
   sodipodi:docname="color_function.svg"
   inkscape:version="1.2.2 (b0a8486541, 2022-12-01)"
   xmlns:inkscape="http://www.inkscape.org/namespaces/inkscape"
   xmlns:sodipodi="http://sodipodi.sourceforge.net/DTD/sodipodi-0.dtd"
   xmlns="http://www.w3.org/2000/svg"
   xmlns:svg="http://www.w3.org/2000/svg">
  <defs
     id="defs114" />
  <sodipodi:namedview
     id="namedview112"
     pagecolor="#ffffff"
     bordercolor="#000000"
     borderopacity="0.25"
     inkscape:showpageshadow="2"
     inkscape:pageopacity="0.0"
     inkscape:pagecheckerboard="0"
     inkscape:deskcolor="#d1d1d1"
     showgrid="false"
     inkscape:zoom="23.59375"
     inkscape:cx="15.978808"
     inkscape:cy="16"
     inkscape:window-width="1680"
     inkscape:window-height="1018"
     inkscape:window-x="0"
     inkscape:window-y="0"
     inkscape:window-maximized="1"
     inkscape:current-layer="svg110" />
  <path
     d="m 1.8649005,16.049447 m 180.4166795,0 h 120.27777 q 180.41668,0 180.41668,175.629763 v 117.0865 q 0,175.62977 -180.41668,175.62977 H 182.28158 q -180.4166795,0 -180.4166795,-175.62977 v -117.0865 q 0,-175.629763 180.4166795,-175.629763 z"
     fill="#4fb4e3"
     p-id="60826"
     id="path102"
     style="stroke-width:1.39068" />
  <path
     d="m 1.8649005,542.93872 m 180.4166795,0 h 120.27777 q 180.41668,0 180.41668,175.62977 v 117.0865 q 0,175.62981 -180.41668,175.62981 H 182.28158 q -180.4166795,0 -180.4166795,-175.62981 v -117.0865 q 0,-175.62977 180.4166795,-175.62977 z"
     fill="#4fb4e3"
     opacity="0.6"
     p-id="60827"
     id="path104"
     style="stroke-width:1.39068" />
  <path
     d="m 543.11493,542.93872 m 180.41666,0 h 120.27779 q 180.41662,0 180.41662,175.62977 v 117.0865 q 0,175.62981 -180.41662,175.62981 H 723.53159 q -180.41666,0 -180.41666,-175.62981 v -117.0865 q 0,-175.62977 180.41666,-175.62977 z"
     fill="#4fb4e3"
     opacity="0.6"
     p-id="60828"
     id="path106"
     style="stroke-width:1.39068" />
  <path
     d="m 543.11493,16.049447 m 180.41666,0 h 120.27779 q 180.41662,0 180.41662,175.629763 v 117.0865 q 0,175.62977 -180.41662,175.62977 H 723.53159 q -180.41666,0 -180.41666,-175.62977 v -117.0865 q 0,-175.629763 180.41666,-175.629763 z"
     fill="#4fb4e3"
     opacity="0.6"
     p-id="60829"
     id="path108"
     style="stroke-width:1.39068" />
</svg>
