<?xml version="1.0" standalone="no"?><!DOCTYPE svg PUBLIC "-//W3C//DTD SVG 1.1//EN" "http://www.w3.org/Graphics/SVG/1.1/DTD/svg11.dtd"><svg t="1730193492017" class="icon" viewBox="0 0 1024 1024" version="1.1" xmlns="http://www.w3.org/2000/svg" p-id="70788" xmlns:xlink="http://www.w3.org/1999/xlink" width="32" height="32"><path d="M656.178 853.44v0.313h-40.209V170.276c0-44.259-36.189-80.418-80.403-80.418H213.939c-44.228 0-80.388 36.16-80.388 80.418v683.477H93.327c-12.043 0-20.112 8.009-20.112 20.083v40.193c0 12.043 8.069 20.113 20.112 20.113h844.269c12.074 0 20.097-8.07 20.097-20.113v-40.193c0-12.074-8.022-20.083-20.097-20.083h-40.209v-0.313H656.178zM334.551 672.807c0 12.072-8.039 20.11-20.097 20.11h-80.403c-12.058 0-20.112-8.038-20.112-20.11v-40.194c0-12.072 8.054-20.112 20.112-20.112h80.403c12.058 0 20.097 8.04 20.097 20.112v40.194z m0-160.808c0 12.074-8.039 20.114-20.097 20.114h-80.403c-12.058 0-20.112-8.04-20.112-20.114v-40.193c0-12.074 8.054-20.112 20.112-20.112h80.403c12.058 0 20.097 8.038 20.097 20.112v40.193z m0-160.835c0 12.074-8.039 20.112-20.097 20.112h-80.403c-12.058 0-20.112-8.038-20.112-20.112V311c0-12.072 8.054-20.141 20.112-20.141h80.403c12.058 0 20.097 8.069 20.097 20.141v40.164z m201.014 321.643c0 12.072-8.023 20.11-20.097 20.11H435.08c-12.073 0-20.111-8.038-20.111-20.11v-40.194c0-12.072 8.039-20.112 20.111-20.112h80.388c12.073 0 20.097 8.04 20.097 20.112v40.194z m0-160.808c0 12.074-8.023 20.114-20.097 20.114H435.08c-12.073 0-20.111-8.04-20.111-20.114v-40.193c0-12.074 8.039-20.112 20.111-20.112h80.388c12.073 0 20.097 8.038 20.097 20.112v40.193z m0-160.835c0 12.074-8.023 20.112-20.097 20.112H435.08c-12.073 0-20.111-8.038-20.111-20.112V311c0-12.072 8.039-20.141 20.111-20.141h80.388c12.073 0 20.097 8.069 20.097 20.141v40.164z" fill="#036EB8" p-id="70789"></path><path d="M897.387 371.276c0-44.198-36.188-80.417-80.402-80.417H656.178V853.44h241.209V371.276zM837.11 672.807c0 12.072-8.067 20.11-20.126 20.11h-80.403c-12.058 0-20.127-8.038-20.127-20.11v-40.194c0-12.072 8.069-20.112 20.127-20.112h80.403c12.059 0 20.126 8.04 20.126 20.112v40.194z m0-160.808c0 12.074-8.067 20.114-20.126 20.114h-80.403c-12.058 0-20.127-8.04-20.127-20.114v-40.193c0-12.074 8.069-20.112 20.127-20.112h80.403c12.059 0 20.126 8.038 20.126 20.112v40.193z" fill="#00A0E9" p-id="70790"></path></svg>