<?xml version="1.0" standalone="no"?><!DOCTYPE svg PUBLIC "-//W3C//DTD SVG 1.1//EN" "http://www.w3.org/Graphics/SVG/1.1/DTD/svg11.dtd"><svg t="1731383169060" class="icon" viewBox="0 0 1024 1024" version="1.1" xmlns="http://www.w3.org/2000/svg" p-id="20729" xmlns:xlink="http://www.w3.org/1999/xlink" width="32" height="32"><path d="M949.924 412.279c-18.127-38.656-40.044-74.201-64.888-106.602a4251.296 4251.296 0 0 1-52.541 46.915c-70.211 61.697-171.428 153.19-176.386 165.536-4.959 12.347-34.51 120.852-200.168 163.643-38.286 7.555-96.82 51.904-108.915 40.97-26.004-16.945 0.94-128.018 22.722-175.725 21.773-47.702 72.008-129.07 112.817-135.809 40.811-6.74 147.336-101.51 227.795-172.21 19.347-17 38.44-33.508 57.19-49.4-179.378-135.203-416.464-165.23-551.62-81.964C24.558 225.53 5.892 502.136 174.233 725.452 342.57 948.766 676.47 1030.66 872.906 913.866c43.74-24.07-51.564-184.314-51.352-259.18 0.218-74.865 163.08-171.06 128.37-242.407zM473.669 115.484c50.239 0 90.968 36.82 90.968 82.238 0 45.42-40.73 82.24-90.968 82.24s-90.969-36.82-90.969-82.24c0-45.418 40.73-82.238 90.969-82.238z m-267.42 349.709c-50.24 0-90.967-36.82-90.967-82.24s40.728-82.239 90.967-82.239c50.24 0 90.97 36.82 90.97 82.24s-40.73 82.239-90.97 82.239z m469.994 429.79c-50.242 0-90.963-36.823-90.963-82.236 0-45.422 40.72-82.243 90.963-82.243 50.244 0 90.977 36.821 90.977 82.243 0 45.413-40.733 82.235-90.977 82.235z" p-id="20730"></path><path d="M636.048 447.86l-25.196-22.13c-13.838-12.142-35.518-11.341-48.209 1.78 0 0-15.756 16.297-30.352 36.478-8.635-0.631-18.31 0.017-29.12 2.49-66.112 15.13-89.271 78.99-89.271 78.99s-32.385 105.514-15.1 116.779c8.038 7.268 37.378-31.28 62.823-36.3 124.901-32.263 136.15-85.364 134.211-109.343 21.798-12.639 38.842-25.956 38.842-25.956 14.585-11.393 15.204-30.648 1.372-42.788zM961.494 129.26c-27.235-24.615-204.808 108.21-326.808 215.42-14.898 13.087-18.411 16.169-18.411 16.169-13.837 12.123-13.853 31.974-0.032 44.114l33.564 29.466c13.824 12.14 36.351 12.057 50.067-0.188 0 0 1.916-1.712 15.982-14.072C837.86 312.964 989.276 154.376 961.494 129.26z" p-id="20731"></path></svg>