<?xml version="1.0" standalone="no"?><!DOCTYPE svg PUBLIC "-//W3C//DTD SVG 1.1//EN" "http://www.w3.org/Graphics/SVG/1.1/DTD/svg11.dtd"><svg t="1730192820961" class="icon" viewBox="0 0 1024 1024" version="1.1" xmlns="http://www.w3.org/2000/svg" p-id="38900" xmlns:xlink="http://www.w3.org/1999/xlink" width="32" height="32"><path d="M622.5 195.1c4.5 0 8.5-2.2 11.2-5.6 0.2-0.1 0.4-0.2 0.6-0.4 2.7-3.9 5.7-7.6 8.8-11 41.1-45 108-45 149.1 0 3.6 3.9 6.9 8.2 10 12.6 0.2 0.3 0.5 0.4 0.8 0.5 2.6 2.6 6.1 4.2 10 4.2 5.8-0.1 11-3.6 13.5-9.1 2.5-5.6 2-12.1-1.5-17.1 0-0.2 0-0.3-0.1-0.4-3.5-4.9-7.3-9.7-11.3-14.1-52.8-57.9-138.8-57.9-191.6 0-3.5 3.9-6.8 7.9-9.9 12.2-2.9 3.2-4.5 7.4-4.5 11.7 0 4.3 1.5 8.5 4.4 11.6 2.6 3.1 6.5 4.9 10.5 4.9z" fill="#4DBBF7" p-id="38901"></path><path d="M781.5 228.1c0-2.9-0.8-5.8-2.4-8.2l-0.2-0.3c-12.8-22.3-36-36-61.1-36.1-25.1 0-48.3 13.7-61.2 36-1.8 2.5-2.9 5.6-2.9 9 0 8.4 6.4 15.1 14.3 15.1 4.2 0 8.2-2 10.9-5.3 0.4-0.2 0.7-0.5 1-0.9 1.9-3.7 4.4-7.1 7.3-10.1 8-8.5 19-13.4 30.5-13.4s22.5 4.8 30.6 13.3c2.6 2.7 4.7 5.6 6.5 8.8 0.1 0.1 0.2 0.1 0.2 0.2 2.6 4.4 7.2 7.2 12.1 7.2 8-0.1 14.4-6.9 14.4-15.3zM409 508c0-12.2-9.9-22.1-22.1-22.1V287.5c0-12.2-9.9-22.1-22.1-22.1s-22.1 9.9-22.1 22.1V486c-12.2 0-22.1 9.9-22.1 22.1v88.2H409V508zM717.7 265.4c-12.2 0-22.1 9.9-22.1 22.1V486c-12.2 0-22.1 9.9-22.1 22.1v88.2h88.2V508c0-12.2-9.9-22.1-22.1-22.1V287.5c0.1-12.2-9.7-22.1-21.9-22.1zM895.9 662.3H234.4c-24.4 0-44.1 19.7-44.1 44.1v132.3c0 24.4 19.7 44.1 44.1 44.1h661.5c24.4 0 44.1-19.7 44.1-44.1V706.4c0-24.3-19.7-44.1-44.1-44.1z" fill="#4DBBF7" p-id="38902"></path><path d="M829.7 574.1h-112v-88.2c0-12.2-9.9-22.1-22.1-22.1V265.4c0-12.2-9.9-22.1-22.1-22.1s-22.1 9.9-22.1 22.1v198.5c-12.2 0-22.1 9.9-22.1 22.1v88.2H364.9V486c0-12.2-9.9-22.1-22.1-22.1V265.4c0-12.2-9.9-22.1-22.1-22.1-12.2 0-22.1 9.9-22.1 22.1v198.5c-12.2 0-22.1 9.9-22.1 22.1v88.2H168.2c-36.5 0-66.2 29.6-66.2 66.2v132.3c0 36.5 29.6 66.2 66.2 66.2h661.5c36.5 0 66.2-29.6 66.2-66.2V640.3c0-36.6-29.6-66.2-66.2-66.2z m22.1 198.5c0 12.2-9.9 22.1-22.1 22.1H168.2c-12.2 0-22.1-9.9-22.1-22.1V640.3c0-12.2 9.9-22.1 22.1-22.1h661.5c12.2 0 22.1 9.9 22.1 22.1v132.3z" fill="" p-id="38903"></path><path d="M232.6 684.4v44.1h44.1v-44.1h-44.1zM298.7 684.4v44.1h44.1v-44.1h-44.1zM364.9 684.4v44.1H409v-44.1h-44.1zM673.6 684.4v44.1h44.1v-44.1h-44.1zM739.7 684.4v44.1h44.1v-44.1h-44.1zM578.4 173.1c4.5 0 8.5-2.2 11.2-5.6 0.2-0.1 0.4-0.2 0.6-0.4 2.7-3.9 5.7-7.6 8.8-11 41.1-45 108-45 149.1 0 3.6 3.9 6.9 8.2 10 12.6 0.2 0.3 0.5 0.4 0.8 0.5 2.6 2.6 6.1 4.2 10 4.2 5.8-0.1 11-3.6 13.5-9.1 2.5-5.6 2-12.1-1.5-17.1 0-0.2 0-0.3-0.1-0.4-3.5-4.9-7.3-9.7-11.3-14.1-52.8-57.9-138.8-57.9-191.6 0-3.5 3.9-6.8 7.9-9.9 12.2-2.9 3.2-4.5 7.4-4.5 11.7 0 4.3 1.5 8.5 4.4 11.6 2.6 3.1 6.5 4.8 10.5 4.9z" fill="" p-id="38904"></path><path d="M673.8 161.4c-25.1 0-48.3 13.7-61.2 36-1.8 2.5-2.9 5.6-2.9 9 0 8.4 6.4 15.1 14.3 15.1 4.2 0 8.2-2 10.9-5.3 0.4-0.2 0.7-0.5 1-0.9 1.9-3.7 4.4-7.1 7.3-10.1 8-8.5 19-13.4 30.5-13.4s22.5 4.8 30.6 13.3c2.6 2.7 4.7 5.6 6.5 8.8 0.1 0.1 0.2 0.1 0.2 0.2 2.6 4.4 7.2 7.2 12.1 7.2 7.9 0 14.3-6.8 14.3-15.2 0-2.9-0.8-5.8-2.4-8.2l-0.2-0.3c-12.7-22.4-35.9-36.1-61-36.2z" fill="" p-id="38905"></path></svg>