<?xml version="1.0" standalone="no"?><!DOCTYPE svg PUBLIC "-//W3C//DTD SVG 1.1//EN" "http://www.w3.org/Graphics/SVG/1.1/DTD/svg11.dtd"><svg t="1730193079678" class="icon" viewBox="0 0 1024 1024" version="1.1" xmlns="http://www.w3.org/2000/svg" p-id="60825" xmlns:xlink="http://www.w3.org/1999/xlink" width="32" height="32"><path d="M128 170.666667m128 0l85.333333 0q128 0 128 128l0 85.333333q0 128-128 128l-85.333333 0q-128 0-128-128l0-85.333333q0-128 128-128Z" fill="#4FB4E3" p-id="60826"></path><path d="M128 554.666667m128 0l85.333333 0q128 0 128 128l0 85.333333q0 128-128 128l-85.333333 0q-128 0-128-128l0-85.333333q0-128 128-128Z" fill="#4FB4E3" opacity=".6" p-id="60827"></path><path d="M512 554.666667m128 0l85.333333 0q128 0 128 128l0 85.333333q0 128-128 128l-85.333333 0q-128 0-128-128l0-85.333333q0-128 128-128Z" fill="#4FB4E3" opacity=".6" p-id="60828"></path><path d="M512 170.666667m128 0l85.333333 0q128 0 128 128l0 85.333333q0 128-128 128l-85.333333 0q-128 0-128-128l0-85.333333q0-128 128-128Z" fill="#4FB4E3" opacity=".6" p-id="60829"></path></svg>