<?xml version="1.0" standalone="no"?><!DOCTYPE svg PUBLIC "-//W3C//DTD SVG 1.1//EN" "http://www.w3.org/Graphics/SVG/1.1/DTD/svg11.dtd"><svg t="1731383870209" class="icon" viewBox="0 0 1024 1024" version="1.1" xmlns="http://www.w3.org/2000/svg" p-id="21038" xmlns:xlink="http://www.w3.org/1999/xlink" width="32" height="32"><path d="M512 53.333333C258.688 53.333333 53.333333 258.688 53.333333 512S258.688 970.666667 512 970.666667c19.882667 0 37.888-3.712 53.632-11.946667 15.914667-8.32 27.690667-20.352 36.224-34.133333 16.085333-25.941333 21.162667-59.093333 24.32-88.064 1.066667-9.813333 1.92-19.370667 2.773333-28.714667a614.4 614.4 0 0 1 7.381334-59.946667c5.248-27.648 13.610667-49.493333 27.605333-65.28 10.368-11.733333 29.866667-21.632 59.818667-30.378666a861.994667 861.994667 0 0 1 67.413333-15.573334c9.770667-2.005333 19.754667-4.010667 29.952-6.229333 32.981333-7.168 68.693333-16.213333 96.298667-32.213333 29.44-17.066667 53.248-44.373333 53.248-86.186667 0-253.312-205.354667-458.666667-458.666667-458.666667zM117.333333 512a394.666667 394.666667 0 1 1 789.333334 0c0 12.416-5.205333 21.504-21.333334 30.848-17.92 10.368-44.416 17.792-77.781333 25.002667-8.448 1.834667-17.365333 3.669333-26.581333 5.546666-24.746667 5.034667-51.370667 10.453333-75.093334 17.365334-32.298667 9.386667-66.858667 23.381333-89.813333 49.365333-25.088 28.245333-36.394667 63.146667-42.581333 95.786667-4.352 22.869333-6.613333 47.616-8.618667 69.589333-0.768 8.533333-1.493333 16.682667-2.304 24.149333-3.2 29.354667-7.509333 48.981333-15.104 61.226667a29.269333 29.269333 0 0 1-11.52 11.136c-4.650667 2.432-11.989333 4.650667-23.936 4.650667A394.666667 394.666667 0 0 1 117.333333 512z m384-213.333333a96 96 0 1 1 192 0 96 96 0 0 1-192 0zM341.333333 288a96 96 0 1 0 0 192 96 96 0 0 0 0-192zM266.666667 661.333333a96 96 0 1 1 192 0 96 96 0 0 1-192 0z" p-id="21039"></path></svg>