<?xml version="1.0" standalone="no"?><!DOCTYPE svg PUBLIC "-//W3C//DTD SVG 1.1//EN" "http://www.w3.org/Graphics/SVG/1.1/DTD/svg11.dtd"><svg t="1730192948445" class="icon" viewBox="0 0 1024 1024" version="1.1" xmlns="http://www.w3.org/2000/svg" p-id="50892" xmlns:xlink="http://www.w3.org/1999/xlink" width="32" height="32"><path d="M440.044254 404.279833c-17.864932-17.557799 13.821008-4.197491 95.006631 40.132112L895.932754 307.174457v491.771931c-303.908604 74.275119-455.8885-57.280399-455.8885-394.666555z" fill="#20C997" p-id="50893"></path><path d="M127.945423 475.995507H128.09899v264.646704a51.188918 51.188918 0 0 0 31.788318 47.349749l307.85015 125.924737a102.377835 102.377835 0 0 0 78.830933-0.511889l261.472991-111.387085a102.377835 102.377835 0 0 0 62.296913-94.187608V370.136825l-303.908604 123.979559a153.566753 153.566753 0 0 1-117.939266-0.819023l-354.22731-150.137095A102.377835 102.377835 0 0 1 95.338083 154.119593L433.901584 15.295249A204.75567 204.75567 0 0 1 580.097132 11.814402l245.911561 87.277105a51.291295 51.291295 0 1 1-36.497699 95.672087l-243.659247-86.509271a102.377835 102.377835 0 0 0-73.097775 1.791612L134.24166 248.819091l354.22731 150.188284a51.188918 51.188918 0 0 0 39.313089 0.255944l303.959792-123.979558A102.377835 102.377835 0 0 1 972.71613 370.136825v337.69329a204.75567 204.75567 0 0 1-124.542636 188.375217l-261.472991 111.335895a204.75567 204.75567 0 0 1-157.764244 1.126157l-307.798962-125.924738A153.566753 153.566753 0 0 1 25.721155 740.6934V481.319154a51.188918 51.188918 0 0 1 102.224268-5.323647z" fill="#2C6DD2" p-id="50894"></path></svg>