<?xml version="1.0" standalone="no"?><!DOCTYPE svg PUBLIC "-//W3C//DTD SVG 1.1//EN" "http://www.w3.org/Graphics/SVG/1.1/DTD/svg11.dtd"><svg t="1730192687320" class="icon" viewBox="0 0 1024 1024" version="1.1" xmlns="http://www.w3.org/2000/svg" p-id="28477" width="32" height="32" xmlns:xlink="http://www.w3.org/1999/xlink"><path d="M595.0976 626.4832m-182.016 0a182.016 182.016 0 1 0 364.032 0 182.016 182.016 0 1 0-364.032 0Z" fill="#FFBE0A" p-id="28478"></path><path d="M515.6352 930.048c-15.3088 0-30.6176-3.328-44.8512-9.984-102.2976-47.7696-340.2752-178.688-340.2752-362.3936V290.0992c0-52.7872 37.9904-97.024 90.3168-105.1648C281.9584 175.4112 373.76 153.6 463.6672 103.6288c32.4608-18.0224 71.168-18.1248 103.5776-0.3072 94.0032 51.8144 183.8592 73.2672 242.7392 82.176 52.3264 7.936 90.3168 52.1728 90.3168 105.1648v267.008c0 185.9584-237.9776 315.5456-340.3264 362.5984a105.0368 105.0368 0 0 1-44.3392 9.7792z m0.1536-768.3072c-5.9392 0-11.8272 1.4848-17.2544 4.5056-99.2256 55.1424-199.7824 79.104-266.7008 89.4976-17.152 2.6624-29.6448 17.1008-29.6448 34.3552v267.6224c0 146.4832 228.7616 264.704 298.9056 297.4208 9.1648 4.3008 19.712 4.3008 28.928 0.1024 70.0416-32.2048 298.5984-148.9408 298.5984-297.5232V290.6624c0-17.3056-12.3392-31.6928-29.3888-34.304-64.6144-9.7792-163.328-33.3824-266.5984-90.2656a35.28192 35.28192 0 0 0-16.8448-4.352z" fill="#34332E" p-id="28479"></path><path d="M586.7008 609.6384h-35.584c0-16.8448-0.0512-32.3072 0-44.6976 64.3584-15.616 112.3328-73.6768 112.3328-142.7968 0-81.0496-65.9456-146.944-146.944-146.944-81.0496 0-146.944 65.9456-146.944 146.944 0 68.1984 46.7456 125.696 109.824 142.1824-0.1024 27.0336 0.0512 73.3696 0.3584 154.8288 0.0512 19.7632 16.128 35.6864 35.84 35.6864h0.1536c19.8144-0.1024 35.7888-16.1792 35.6864-35.9936l-0.1536-37.5808h35.4304c19.8144 0 35.84-16.0256 35.84-35.84s-16.0256-35.7888-35.84-35.7888zM441.1904 422.144c0-41.5232 33.792-75.264 75.264-75.264 41.5232 0 75.264 33.792 75.264 75.264s-33.792 75.264-75.264 75.264-75.264-33.7408-75.264-75.264z" fill="#34332E" p-id="28480"></path></svg>