<?xml version="1.0" encoding="UTF-8" standalone="no"?>
<svg
   t="1730192687320"
   class="icon"
   viewBox="0 0 1024 1024"
   version="1.1"
   p-id="28477"
   width="32"
   height="32"
   id="svg190"
   sodipodi:docname="color_permission.svg"
   inkscape:version="1.2.2 (b0a8486541, 2022-12-01)"
   xmlns:inkscape="http://www.inkscape.org/namespaces/inkscape"
   xmlns:sodipodi="http://sodipodi.sourceforge.net/DTD/sodipodi-0.dtd"
   xmlns="http://www.w3.org/2000/svg"
   xmlns:svg="http://www.w3.org/2000/svg">
  <defs
     id="defs194" />
  <sodipodi:namedview
     id="namedview192"
     pagecolor="#ffffff"
     bordercolor="#000000"
     borderopacity="0.25"
     inkscape:showpageshadow="2"
     inkscape:pageopacity="0.0"
     inkscape:pagecheckerboard="0"
     inkscape:deskcolor="#d1d1d1"
     showgrid="false"
     inkscape:zoom="7.375"
     inkscape:cx="16"
     inkscape:cy="16.067797"
     inkscape:window-width="1680"
     inkscape:window-height="1018"
     inkscape:window-x="0"
     inkscape:window-y="0"
     inkscape:window-maximized="1"
     inkscape:current-layer="svg190" />
  <path
     d="m 607.72675,648.13596 m -215.86251,0 a 215.86251,215.86251 0 1 0 431.72502,0 215.86251,215.86251 0 1 0 -431.72502,0 z"
     fill="#ffbe0a"
     p-id="28478"
     id="path184"
     style="stroke-width:1.18595" />
  <path
     d="m 513.48804,1008.1497 c -18.15552,0 -36.31105,-3.9469 -53.19143,-11.84057 C 338.97641,939.65661 56.746088,784.39348 56.746088,566.52718 V 249.20019 c 0,-62.60316 45.054852,-115.06595 107.111492,-124.72056 72.50065,-11.29408 181.37308,-37.161148 287.99883,-96.424666 38.497,-21.373728 84.40194,-21.4951697 122.83822,-0.364325 111.48342,61.449468 218.04845,86.891491 287.8774,97.456921 62.05667,9.41172 107.11152,61.87451 107.11152,124.72056 v 316.65906 c 0,220.53802 -282.23036,374.22241 -403.61128,430.02484 a 124.56876,124.56876 0 0 1 -52.58423,11.59768 z M 513.6702,96.973092 c -7.04361,0 -14.0265,1.760904 -20.46291,5.343428 -117.67695,65.39633 -236.93263,93.81367 -316.29474,106.14 -20.34147,3.15748 -35.15734,20.28075 -35.15734,40.74367 v 317.38772 c 0,173.72226 271.3006,313.92662 354.48812,352.72723 10.86903,5.10055 23.37752,5.10055 34.30726,0.12144 C 613.61667,881.24318 884.6744,742.79972 884.6744,566.58791 V 249.86812 c 0,-20.52364 -14.63371,-37.58619 -34.85375,-40.68295 C 773.19098,197.58749 656.12124,169.5952 533.64735,102.13436 A 41.842716,41.842716 0 0 0 513.6702,96.973092 Z"
     fill="#34332e"
     p-id="28479"
     id="path186"
     style="stroke-width:1.18595" />
  <path
     d="m 597.76854,628.15881 h -42.20097 c 0,-19.97714 -0.0607,-38.31483 0,-53.00927 76.32607,-18.51985 133.22147,-87.37726 133.22147,-169.35036 0,-96.12106 -78.20841,-174.26875 -174.26874,-174.26875 -96.12106,0 -174.26875,78.20841 -174.26875,174.26875 0,80.88013 55.43811,149.06961 130.24615,168.62171 -0.12144,32.06059 0.0607,87.01293 0.42505,183.61975 0.0607,23.43824 19.12706,42.32241 42.50457,42.32241 h 0.18216 c 23.49896,-0.12144 42.44386,-19.18777 42.32241,-42.68673 l -0.18216,-44.56908 h 42.01881 c 23.49895,0 42.50457,-19.00562 42.50457,-42.50457 0,-23.49896 -19.00562,-42.44386 -42.50457,-42.44386 z M 425.19997,405.79918 c 0,-49.24458 40.07574,-89.2596 89.25961,-89.2596 49.24458,0 89.2596,40.07574 89.2596,89.2596 0,49.18386 -40.07574,89.2596 -89.2596,89.2596 -49.18387,0 -89.25961,-40.01502 -89.25961,-89.2596 z"
     fill="#34332e"
     p-id="28480"
     id="path188"
     style="stroke-width:1.18595" />
</svg>
