<?xml version="1.0" standalone="no"?><!DOCTYPE svg PUBLIC "-//W3C//DTD SVG 1.1//EN" "http://www.w3.org/Graphics/SVG/1.1/DTD/svg11.dtd"><svg t="1730192981260" class="icon" viewBox="0 0 1024 1024" version="1.1" xmlns="http://www.w3.org/2000/svg" p-id="53165" xmlns:xlink="http://www.w3.org/1999/xlink" width="32" height="32"><path d="M512.018 242.153c87.244 0 177.169-49.798 195.052-134.053l0.297 0.143v-2.116H317.036c18.193 85.353 109.635 136.026 194.982 136.026z" fill="#152B3C" p-id="53166"></path><path d="M638.019 106.126c-24.497 75.536-108.994 119.74-191.164 119.74-7.274 0-14.59-0.506-21.903-1.229 27.603 11.37 57.665 17.52 87.065 17.52 87.245 0 177.171-49.804 195.053-134.058l0.297 0.143v-2.116h-69.348z" fill="#070707" p-id="53167"></path><path d="M900.553 432.54H782.647c-11.375 0-9.991 2.061-9.991 13.418v471.916H287.323V445.957c0-11.357-27.723-13.418-39.08-13.418H123.517L64 230.999l253.038-124.873c18.191 85.352 109.633 136.028 194.98 136.028 87.245 0 177.169-49.803 195.052-134.057L960 231.4l-59.447 201.14z" fill="#FCB814" p-id="53168"></path><path d="M707.07 108.098c-1.529 7.207-3.763 14.063-6.3 20.753l210.357 102.55-59.446 201.139h48.872l59.445-201.139L707.07 108.098zM463.145 242.156c8.258 0 16.53-0.588 24.773-1.468-77.749-8.484-154.396-57.212-170.88-134.563l-42.492 20.972c27.539 72.557 110.53 115.059 188.599 115.059zM723.785 445.959v471.915h48.872V445.959c0-11.358-1.386-13.419 9.991-13.419h-48.872c-11.377 0-9.991 2.061-9.991 13.419z" fill="#070707" p-id="53169"></path></svg>