<?xml version="1.0" encoding="UTF-8" standalone="no"?>
<svg
   t="1730192820961"
   class="icon"
   viewBox="0 0 1024 1024"
   version="1.1"
   p-id="38900"
   width="32"
   height="32"
   id="svg12"
   sodipodi:docname="color_router.svg"
   inkscape:version="1.2.2 (b0a8486541, 2022-12-01)"
   xmlns:inkscape="http://www.inkscape.org/namespaces/inkscape"
   xmlns:sodipodi="http://sodipodi.sourceforge.net/DTD/sodipodi-0.dtd"
   xmlns="http://www.w3.org/2000/svg"
   xmlns:svg="http://www.w3.org/2000/svg">
  <defs
     id="defs16" />
  <sodipodi:namedview
     id="namedview14"
     pagecolor="#ffffff"
     bordercolor="#000000"
     borderopacity="0.25"
     inkscape:showpageshadow="2"
     inkscape:pageopacity="0.0"
     inkscape:pagecheckerboard="0"
     inkscape:deskcolor="#d1d1d1"
     showgrid="false"
     inkscape:zoom="7.375"
     inkscape:cx="16"
     inkscape:cy="16.067797"
     inkscape:window-width="1680"
     inkscape:window-height="1018"
     inkscape:window-x="0"
     inkscape:window-y="0"
     inkscape:window-maximized="1"
     inkscape:current-layer="svg12" />
  <path
     d="m 639.00784,156.3429 c 5.43503,0 10.26616,-2.65712 13.52718,-6.76358 0.24156,-0.12078 0.48312,-0.24157 0.72467,-0.48311 3.26102,-4.71036 6.88436,-9.17917 10.6285,-13.28563 49.6399,-54.350234 130.44062,-54.350234 180.0805,0 4.34803,4.71036 8.33371,9.90383 12.07784,15.21808 0.24156,0.36233 0.60389,0.48311 0.96623,0.60388 3.14024,3.14025 7.36747,5.0727 12.07784,5.0727 7.00513,-0.12078 13.28561,-4.34803 16.30507,-10.99083 3.01946,-6.76358 2.41556,-14.61417 -1.81168,-20.65309 0,-0.24157 0,-0.36234 -0.12078,-0.48312 -4.22723,-5.91814 -8.8168,-11.71549 -13.64795,-17.02974 -63.77096,-69.930652 -167.64034,-69.930652 -231.41131,0 -4.22723,4.71037 -8.21292,9.54149 -11.95704,14.73495 -3.50258,3.86491 -5.43504,8.93759 -5.43504,14.13106 0,5.19347 1.81168,10.26616 5.31425,14.0103 3.14025,3.74412 7.8506,5.91813 12.68172,5.91813 z"
     fill="#4dbbf7"
     p-id="38901"
     id="path2"
     style="stroke-width:1.20779" />
  <path
     d="m 831.04541,196.19976 c 0,-3.50257 -0.96622,-7.00514 -2.89868,-9.90383 l -0.24154,-0.36234 c -15.45965,-26.93357 -43.48022,-43.4802 -73.79558,-43.60097 -30.31537,0 -58.33594,16.54663 -73.91635,43.4802 -2.17401,3.01946 -3.50256,6.76358 -3.50256,10.87004 0,10.14539 7.7298,18.23753 17.27129,18.23753 5.07269,0 9.90383,-2.41555 13.16484,-6.40124 0.48311,-0.24156 0.84545,-0.60389 1.20779,-1.08701 2.29478,-4.4688 5.31424,-8.57526 8.81682,-12.1986 9.66226,-10.26617 22.94787,-16.18431 36.83739,-16.18431 13.88952,0 27.17513,5.79736 36.95817,16.06352 3.14024,3.26101 5.67658,6.76359 7.85059,10.62849 0.12079,0.12079 0.24157,0.12079 0.24157,0.24156 3.14023,5.31425 8.69603,8.69604 14.61418,8.69604 9.66227,-0.12077 17.39207,-8.33371 17.39207,-18.47908 z M 381.14609,534.25835 c 0,-14.73497 -11.95707,-26.69203 -26.69203,-26.69203 V 267.9421 c 0,-14.73496 -11.95705,-26.69202 -26.69201,-26.69202 -14.73495,0 -26.69202,11.95706 -26.69202,26.69202 v 239.74501 c -14.73495,0 -26.692,11.95705 -26.692,26.69201 V 640.90561 H 381.14609 Z M 753.98883,241.25008 c -14.73496,0 -26.69202,11.95706 -26.69202,26.69202 v 239.74501 c -14.73496,0 -26.69202,11.95705 -26.69202,26.69201 V 640.90561 H 807.13131 V 534.25835 c 0,-14.73497 -11.95706,-26.69203 -26.69202,-26.69203 V 267.9421 c 0.12077,-14.73496 -11.7155,-26.69202 -26.45046,-26.69202 z m 215.227,479.36925 H 170.26709 c -29.46992,0 -53.26325,23.79334 -53.26325,53.26325 v 159.78974 c 0,29.46992 23.79333,53.26325 53.26325,53.26325 h 798.94874 c 29.46988,0 53.26327,-23.79333 53.26327,-53.26325 V 773.88258 c 0,-29.34914 -23.79339,-53.26325 -53.26327,-53.26325 z"
     fill="#4dbbf7"
     p-id="38902"
     id="path4"
     style="stroke-width:1.20779" />
  <path
     d="M 889.26057,614.09283 H 753.98883 V 507.56632 c 0,-14.73496 -11.95706,-26.69201 -26.69202,-26.69201 V 241.25008 c 0,-14.73496 -11.95706,-26.69201 -26.69202,-26.69201 -14.73495,0 -26.692,11.95705 -26.692,26.69201 v 239.74501 c -14.73496,0 -26.69201,11.95706 -26.69201,26.69202 v 106.5265 H 327.88283 v -106.5265 c 0,-14.73496 -11.95704,-26.69202 -26.692,-26.69202 V 241.25008 c 0,-14.73496 -11.95707,-26.69201 -26.69203,-26.69201 -14.73496,0 -26.69201,11.95705 -26.69201,26.69201 v 239.74501 c -14.73496,0 -26.69202,11.95706 -26.69202,26.69202 v 106.5265 H 90.311827 c -44.0841,0 -79.955263,35.75038 -79.955263,79.95526 v 159.78974 c 0,44.08411 35.750388,79.95527 79.955263,79.95527 H 889.26057 c 44.0841,0 79.95526,-35.75039 79.95526,-79.95527 V 694.04809 c 0,-44.20487 -35.75038,-79.95526 -79.95526,-79.95526 z m 26.69202,239.74502 c 0,14.73495 -11.95706,26.692 -26.69202,26.692 H 90.311827 c -14.734959,0 -26.692009,-11.95705 -26.692009,-26.692 V 694.04809 c 0,-14.73496 11.95705,-26.69202 26.692009,-26.69202 H 889.26057 c 14.73496,0 26.69202,11.95706 26.69202,26.69202 z"
     fill=""
     p-id="38903"
     id="path6"
     style="stroke-width:1.20779" />
  <path
     d="m 168.09308,747.31134 v 53.26325 h 53.26326 v -53.26325 z m 79.83449,0 v 53.26325 h 53.26326 v -53.26325 z m 79.95526,0 v 53.26325 h 53.26326 v -53.26325 z m 372.84276,0 v 53.26325 h 53.26324 v -53.26325 z m 79.83447,0 v 53.26325 h 53.26325 V 747.31134 Z M 585.7446,129.77166 c 5.43501,0 10.26615,-2.65712 13.52717,-6.76358 0.24156,-0.12078 0.48312,-0.24156 0.72468,-0.48311 3.261,-4.71036 6.88436,-9.17914 10.62849,-13.2856 49.63989,-54.350257 130.44061,-54.350257 180.08051,0 4.34802,4.71034 8.33371,9.9038 12.07783,15.21805 0.24156,0.36233 0.60389,0.48311 0.96623,0.6039 3.14023,3.14022 7.36748,5.07268 12.07784,5.07268 7.00513,-0.12079 13.28561,-4.34802 16.30507,-10.99083 3.01946,-6.76358 2.41556,-14.61417 -1.81168,-20.65308 0,-0.241554 0,-0.36233 -0.12078,-0.483107 -4.22723,-5.918141 -8.81681,-11.715498 -13.64795,-17.029751 -63.77096,-69.930661 -167.64034,-69.930661 -231.41131,0 -4.22724,4.710353 -8.21293,9.541492 -11.95705,14.734959 -3.50258,3.86491 -5.43503,8.937599 -5.43503,14.131059 0,5.19346 1.81168,10.26616 5.31425,14.01028 3.14024,3.74413 7.85059,5.79736 12.68173,5.91813 z"
     fill=""
     p-id="38904"
     id="path8"
     style="stroke-width:1.20779" />
  <path
     d="m 700.96713,115.64061 c -30.31535,0 -58.33592,16.54663 -73.91634,43.4802 -2.174,3.01946 -3.50258,6.76358 -3.50258,10.87004 0,10.14539 7.72982,18.23753 17.27131,18.23753 5.07269,0 9.90382,-2.41556 13.16485,-6.40125 0.4831,-0.24155 0.84545,-0.60389 1.20778,-1.087 2.29478,-4.4688 5.31424,-8.57527 8.81681,-12.19862 9.66228,-10.26615 22.94789,-16.1843 36.8374,-16.1843 13.8895,0 27.17513,5.79737 36.95818,16.06353 3.14023,3.26101 5.67658,6.76358 7.85059,10.62849 0.12077,0.12077 0.24155,0.12077 0.24155,0.24156 3.14025,5.31425 8.69604,8.69604 14.61418,8.69604 9.54149,0 17.2713,-8.21293 17.2713,-18.35832 0,-3.50257 -0.96623,-7.00513 -2.89868,-9.90381 l -0.24155,-0.36234 c -15.33885,-27.05435 -43.35942,-43.60098 -73.6748,-43.72175 z"
     fill=""
     p-id="38905"
     id="path10"
     style="stroke-width:1.20779" />
</svg>
