<?xml version="1.0" standalone="no"?><!DOCTYPE svg PUBLIC "-//W3C//DTD SVG 1.1//EN" "http://www.w3.org/Graphics/SVG/1.1/DTD/svg11.dtd"><svg t="1723454548775" class="icon" viewBox="0 0 1024 1024" version="1.1" xmlns="http://www.w3.org/2000/svg" p-id="42654" xmlns:xlink="http://www.w3.org/1999/xlink" width="16" height="16"><path d="M305.6 293.8h418.2c13.6 0 24.7-11.1 24.7-24.7s-11.1-24.7-24.7-24.7H305.6c-13.6 0-24.7 11.1-24.7 24.7 0 13.7 11.1 24.7 24.7 24.7zM303.2 467h418.2c13.6 0 24.7-11.1 24.7-24.7s-11.1-24.7-24.7-24.7H303.2c-13.6 0-24.7 11.1-24.7 24.7 0 13.7 11.1 24.7 24.7 24.7zM579.4 615.5c0-13.6-11.1-24.7-24.7-24.7H306.3c-13.6 0-24.7 11.1-24.7 24.7s11.1 24.7 24.7 24.7h248.4c13.6 0 24.7-11.1 24.7-24.7z" fill="currentColor" p-id="42655"></path><path d="M889.6 676.8c0-0.1 0.1-0.1 0.1-0.2 0.3-0.4 0.5-0.8 0.8-1.2 0.1-0.1 0.2-0.3 0.2-0.4 0.3-0.4 0.5-0.9 0.8-1.3 0-0.1 0.1-0.2 0.1-0.3l0.6-1.2c0.1-0.1 0.1-0.3 0.2-0.4 0.2-0.5 0.4-1 0.6-1.4 0-0.1 0.1-0.2 0.1-0.2 0.1-0.4 0.3-0.9 0.4-1.3 0-0.1 0.1-0.3 0.1-0.4 0.1-0.5 0.3-1 0.4-1.5v-0.2c0.1-0.5 0.2-0.9 0.2-1.4v-0.4c0.1-0.5 0.1-1 0.1-1.6v-0.2-475c0-68.1-55.4-123.5-123.5-123.5H255.3c-68.1 0-123.5 55.4-123.5 123.5v648.3c0 68.1 55.4 123.5 123.5 123.5h346.5c0.4 0 0.8-0.1 1.2-0.1h0.4c0.3 0 0.5-0.1 0.8-0.1 0.2 0 0.4-0.1 0.5-0.1 0.2 0 0.4-0.1 0.7-0.1 0.2 0 0.4-0.1 0.6-0.1 0.2 0 0.4-0.1 0.6-0.1 0.2 0 0.4-0.1 0.5-0.1 0.2-0.1 0.4-0.1 0.6-0.2 0.2 0 0.3-0.1 0.5-0.2s0.5-0.1 0.7-0.2c0.1 0 0.3-0.1 0.4-0.2 0.2-0.1 0.5-0.2 0.7-0.3 0.1 0 0.2-0.1 0.3-0.1 0.3-0.1 0.5-0.2 0.8-0.4 0.1 0 0.2-0.1 0.3-0.1 0.3-0.1 0.5-0.3 0.8-0.4 0.1 0 0.2-0.1 0.2-0.1 0.3-0.2 0.6-0.3 0.8-0.5 0.1 0 0.1-0.1 0.2-0.1 0.3-0.2 0.6-0.3 0.8-0.5 0.1 0 0.1-0.1 0.2-0.1 0.3-0.2 0.5-0.4 0.8-0.6 0.1-0.1 0.2-0.1 0.2-0.2 0.2-0.2 0.5-0.4 0.7-0.6 0.1-0.1 0.2-0.2 0.4-0.3 0.2-0.2 0.4-0.3 0.6-0.5l0.9-0.9 268.9-273.1c0.4-0.4 0.8-0.8 1.1-1.2l0.3-0.3c0.6-0.6 0.9-1 1.3-1.4zM181.2 836.5V188.2c0-40.9 33.2-74.1 74.1-74.1h515.5c40.9 0 74.1 33.2 74.1 74.1v449.3H699.5C631.4 637.5 576 692.9 576 761v149.6H255.3c-40.9 0-74.1-33.2-74.1-74.1zM625.4 875V761c0-40.9 33.2-74.1 74.1-74.1h111.1L625.4 875z" fill="currentColor" p-id="42656"></path></svg>