<?xml version="1.0" standalone="no"?><!DOCTYPE svg PUBLIC "-//W3C//DTD SVG 1.1//EN" "http://www.w3.org/Graphics/SVG/1.1/DTD/svg11.dtd"><svg t="1727420104024" class="icon" viewBox="0 0 1043 1024" version="1.1" xmlns="http://www.w3.org/2000/svg" p-id="22599" xmlns:xlink="http://www.w3.org/1999/xlink" width="16.296875" height="16"><path d="M895.061312 791.554469H148.730499c-34.346188 0-62.273903-27.92285-62.273903-62.273903v-559.113803c0-34.346188 27.927715-62.273903 62.273903-62.273903h746.330813c34.351053 0 62.273903 27.927715 62.273903 62.273903v559.113803c0 34.351053-27.92285 62.273903-62.273903 62.273903z m-746.231075-62.273903h746.231075l0.099738-0.094872V170.166763l-0.099738-0.094872h-746.231075l-0.099738 0.094872 0.099738 559.113803c-0.099737 0-0.099737 0 0 0z m0 0" p-id="22600"></path><path d="M564.876685 459.351982l67.221855 67.221855c12.178921 12.178921 12.18257 31.856399 0.003649 44.035321-12.178921 12.178921-31.858832 12.177705-44.037753-0.001216l-67.084412-67.084413-65.227106 65.227106c-12.178921 12.178921-31.85275 12.178921-44.031672 0-12.178921-12.178921-12.181354-31.855183-0.002432-44.034104l65.227105-65.227106c24.222832-24.357842 63.711582-24.357842 87.930766-0.137443z" p-id="22601"></path><path d="M630.90169 393.677274l-65.84864 65.84864c-24.215534 24.215534-63.707933 24.219183-87.997663-0.070546l-65.364549-65.364549c-12.178921-12.178921-12.178921-31.85275 0-44.031671 12.178921-12.178921 31.856399-12.181354 44.034105-0.002433l65.364549 65.364549 65.778094-65.778094c12.178921-12.178921 31.855183-12.175272 44.032888 0.003648 12.180138 12.178921 12.180138 31.851534 0.001216 44.030456zM117.354543 916.10714c-17.224179 0-31.139992-13.915813-31.139992-31.138776 0-17.222963 13.915813-31.135127 31.139992-31.135127l809.088807-0.683567c17.222963 0 31.133911 13.915813 31.133911 31.138776s-13.910948 31.139992-31.133911 31.139992l-809.088807 0.678702c0.094872 0 0 0 0 0z" p-id="22602"></path></svg>