<?xml version="1.0" encoding="UTF-8" standalone="no"?>
<svg
  t="1731504271223"
  class="icon"
  viewBox="0 0 1027 1024"
  version="1.1"
  p-id="23497"
  width="32.09375"
  height="32"
  xmlns="http://www.w3.org/2000/svg"
  xmlns:svg="http://www.w3.org/2000/svg">
  <path
    d="m 364.62609,82.768662 a 21.580572,21.580572 0 0 1 21.58057,21.580558 v 43.08032 a 21.580572,21.580572 0 0 1 -21.58057,21.58058 H 299.9652 A 115.33886,115.33886 0 0 0 170.64341,292.67407 v 458.28407 c 0,75.24911 36.04845,106.36717 123.25983,107.74121 h 437.10762 c 94.72821,0 127.94774,-34.43192 129.32179,-123.66395 v -81.63438 a 21.580572,21.580572 0 0 1 21.58057,-21.58057 h 43.08032 a 21.580572,21.580572 0 0 1 21.58057,21.58057 v 75.97655 A 190.02219,190.02219 0 0 1 738.28521,944.94081 H 299.9652 c -133.52475,0 -212.734354,-62.96354 -215.482442,-187.35493 V 298.3319 A 200.69124,200.69124 0 0 1 293.33746,82.849487 h 71.28863 z m 538.78687,0 a 43.080319,43.080319 0 0 1 42.9995,39.847268 v 283.45718 a 21.580572,21.580572 0 0 1 -21.58058,21.58057 H 881.91322 A 21.580572,21.580572 0 0 1 860.33265,406.07311 V 229.95301 L 599.99173,490.29392 a 21.580572,21.580572 0 0 1 -30.47144,0 l -30.47145,-30.30979 a 21.580572,21.580572 0 0 1 0,-30.47144 L 799.30893,169.17177 H 623.26965 a 21.580572,21.580572 0 0 1 -21.58057,-21.58058 v -43.24197 a 21.580572,21.580572 0 0 1 21.58057,-21.580558 h 280.22414 z"
    p-id="23498"
    id="path2"
    style="stroke-width:0.843215" />   
</svg>
