<?xml version="1.0" standalone="no"?><!DOCTYPE svg PUBLIC "-//W3C//DTD SVG 1.1//EN" "http://www.w3.org/Graphics/SVG/1.1/DTD/svg11.dtd"><svg t="1723450354107" class="icon" viewBox="0 0 1024 1024" version="1.1" xmlns="http://www.w3.org/2000/svg" p-id="141050" xmlns:xlink="http://www.w3.org/1999/xlink" width="16" height="16"><path d="M430.6 406.7c0 3.1-2.5 5.6-5.6 5.6h-71.9l-5 21.5-0.5 2.5c-17.8 77.1-26.2 113-34.3 142.3-8.8 46-47.3 80.3-94 84-2 0-3.9 0.3-5.8 0.4-3.1 0.1-5.7-2.3-5.8-5.3v-44.8c0-2.9 2.3-5.4 5.2-5.6 2.6-0.1 5.2-0.4 7.8-0.8 19.8-3.7 31.8-16.8 38.9-42.6 7.8-28.2 16.3-63.9 33.6-139.9l0.5-2.5 2.1-8.9h-54.7c-3.1 0-5.6-2.5-5.6-5.6v-44.6c0-3.1 2.5-5.6 5.6-5.6h67.6c6.5-27.8 10.5-44.6 15-62.4 16.3-64.1 72.5-87.4 156.7-72.8l6.2 1.1c3 0.6 5 3.5 4.5 6.6l-8.9 43.7c-0.5 3-3.3 5-6.3 4.5h-0.1c-2.6-0.5-5.1-1-7.7-1.4-56-9.5-82.3 2.1-89.9 32.1-3.7 14.5-7.1 28.4-11.9 48.6h59c3.1 0 5.6 2.5 5.6 5.6l-0.3 44.3zM653.5 406.7c0 3.1-2.5 5.6-5.6 5.6h-16.2l-51.9 57.3 27.8 54.2H620c3.1 0 5.6 2.5 5.6 5.6V574c0 3.1-2.5 5.6-5.6 5.6h-46.3L540 513.8l-59.6 65.8h-44.3c-3.1 0-5.6-2.5-5.6-5.6v-44.6c0-3.1 2.5-5.6 5.6-5.6h19.6l57-63.1-24.9-48.5H464c-3.1 0-5.6-2.5-5.6-5.6V362c0-3.1 2.5-5.6 5.6-5.6h58l30.9 60.1 54.4-60.1h40.9c3.1 0 5.6 2.5 5.6 5.6l-0.3 44.7zM755.6 695c-45.7 0-82.9 37.2-82.9 82.9 0.1 45.8 37.1 82.8 82.9 82.9 45.7 0 82.9-37.2 82.9-82.9S801.3 695 755.6 695z m0 125c-23.3 0-42.1-18.9-42.1-42.1 0-23.3 18.9-42.1 42.1-42.1 23.3 0 42.1 18.9 42.1 42.1 0 23.3-18.9 42.1-42.1 42.1z" fill="currentColor" p-id="141051"></path><path d="M944.4 724.8c-0.1 0-0.1 0 0 0h-2.1c-34.3-0.1-62.3-28-62.3-62.3 0-10.1 3.9-20.4 5.2-23.6l0.2-0.4c3.3-7.4 0.7-16.7-5.9-21.3l-0.2-0.2-52.4-29.1-0.2-0.1c-2.3-1-4.8-1.5-7.4-1.5-5.6 0-11.1 2.2-14.6 5.8-0.3 0.3-25.7 26.2-48.6 26.2-23.1 0-48.6-26.4-48.8-26.7-3.6-3.8-9.1-6-14.8-6-2.6 0-5 0.5-7.2 1.4l-0.3 0.1-54.2 29.8-0.2 0.2c-4.6 3.3-7.3 8.7-7.3 14.3 0 2.4 0.5 4.8 1.4 6.9l0.2 0.4c1.3 3.3 5.3 13.6 5.3 23.6 0 34.3-28 62.3-62.3 62.4h-2.2c-5 0-9.4 5.5-11 13.8 0 0.2-4.3 22.9-4.3 40.2 0 17.4 4.3 39.9 4.3 40.1 1.6 8.3 6 13.9 11 13.9h2.2c34.3 0 62.3 28 62.3 62.3 0 6.1-1.5 12.4-2.9 17l0.5 0.2-2.9 6.6c-1 2.2-1.5 4.6-1.5 7.1 0 5.8 2.7 11 7.4 14.4l0.2 0.2 51.3 28.7 0.3 0.1c2.2 1 4.7 1.5 7.3 1.5 5.7 0 11.1-2.3 14.6-6.1 0.3-0.3 26-27.9 49.6-27.9 23.7 0 49.7 28.1 49.9 28.4 3.5 3.9 9 6.2 14.8 6.2h0.1c2.5 0 4.9-0.5 7-1.4l0.3-0.1 53.2-29.4 0.2-0.2c4.7-3.4 7.4-8.7 7.4-14.4 0-2.4-0.5-4.8-1.4-6.9-0.2-0.5-5.4-12.6-5.4-24 0-34.3 28-62.3 62.3-62.3h2.2c5 0 15.3-38.3 15.3-54-0.3-16.4-10.6-53.9-15.6-53.9z m-36.8 84.7l-1.3 5.2-5.4 0.3c-30 1.7-53.5 26.5-53.5 56.5 0 9.9 4 19.8 4.8 21.7l2.5 6-47.4 26.2h-1.9c-2.1 0-4.1-0.6-5.6-1.7l-0.6-0.4-0.5-0.5c-1-1.1-6.4-6.8-13.9-12.3-11.2-8.3-21.6-12.6-31-12.6-7.8 0-32.8 12.1-44.6 24.5l-0.7 0.7-0.8 0.5c-1.4 0.9-3.3 1.4-5 1.4h-2l-46-25.7 2.6-6c0.5-1.1 4.8-11.4 4.8-21.7 0-30-23.6-54.9-53.6-56.5l-5.7-0.3-1-5.6c-0.3-1.8-3.2-17.8-3.2-30.3 0-12.1 2.8-27.8 3.5-30.7l1.3-5.2 5.4-0.3c30-1.7 53.5-26.5 53.5-56.5 0-9.6-3.7-19.1-4.8-21.7l-2.5-6 48.2-26.5h2c3.1 0 4.9 1.7 5.9 2.8 1.3 1.2 4.7 4.5 14.5 11.5 11 7.8 21.2 11.8 30.2 11.8 7.6 0 32-11.4 43.7-23l0.6-0.6 0.8-0.5c1.6-0.9 3.4-1.4 5.2-1.4h0.8l1.5 0.1 46.4 25.8-2.5 6c-1.1 2.7-4.8 12.2-4.8 21.8 0 30 23.6 54.8 53.6 56.5l5.7 0.3 1 5.6c0.8 4.2 3.2 18.9 3.2 30.2 0.1 11.9-2.7 27.7-3.4 30.6z" fill="currentColor" p-id="141052"></path><path d="M525.4 921.4H175.7c-34.1 0-61.7-27.6-61.7-61.7V187.1c0-34.1 27.6-61.7 61.7-61.7h672.7c34.1 0 61.7 27.6 61.7 61.7v373.5c0 13.8 11.2 25 25 25s25-11.2 25-25V172.8c0-53.8-43.6-97.4-97.4-97.4H161.4C107.6 75.4 64 119 64 172.8v701.3c0 53.8 43.6 97.4 97.4 97.4h364c13.8 0 25-11.2 25-25 0-13.9-11.2-25.1-25-25.1z" fill="currentColor" p-id="141053"></path></svg>