<?xml version="1.0" standalone="no"?><!DOCTYPE svg PUBLIC "-//W3C//DTD SVG 1.1//EN" "http://www.w3.org/Graphics/SVG/1.1/DTD/svg11.dtd"><svg t="1723702710040" class="icon" viewBox="0 0 1024 1024" version="1.1" xmlns="http://www.w3.org/2000/svg" p-id="57083" xmlns:xlink="http://www.w3.org/1999/xlink" width="16" height="16"><path d="M976.78848 480a48 48 0 0 0-48 48v76.112L690.16448 365.488l-95.44-95.44C586.03648 261.376 574.03648 256 560.78848 256s-25.248 5.376-33.936 14.064L304.78848 492.128 82.72448 270.064a48 48 0 1 0-67.872 67.872l256 256A47.84 47.84 0 0 0 304.78848 608a47.84 47.84 0 0 0 33.936-14.064L560.78848 371.888l61.488 61.488 4.768 4.768 27.808 27.808L860.90048 672H784.78848a48 48 0 1 0 0 96h192a48 48 0 0 0 48-48V528a48 48 0 0 0-48-48z" fill="" p-id="57084" fill="currentColor"></path></svg>