<?xml version="1.0" standalone="no"?><!DOCTYPE svg PUBLIC "-//W3C//DTD SVG 1.1//EN" "http://www.w3.org/Graphics/SVG/1.1/DTD/svg11.dtd"><svg t="1727421868185" class="icon" viewBox="0 0 1024 1024" version="1.1" xmlns="http://www.w3.org/2000/svg" p-id="19809" xmlns:xlink="http://www.w3.org/1999/xlink" width="16" height="16"><path d="M885.12 828.16l101.12-106.24a37.76 37.76 0 1 0-55.04-52.48L832 775.68l-106.24-101.12a38.4 38.4 0 0 0-53.76 0 37.76 37.76 0 0 0 0 53.76L777.6 832l-101.12 106.24a38.4 38.4 0 0 0 0 53.76 36.48 36.48 0 0 0 26.24 10.24 39.04 39.04 0 0 0 27.52-11.52L832 883.2l106.24 101.12a37.12 37.12 0 0 0 53.76 0 38.4 38.4 0 0 0 0-53.76z" p-id="19810"></path><path d="M458.88 561.28A273.28 273.28 0 1 0 304 512a448 448 0 0 0-292.48 420.48v37.76a37.76 37.76 0 0 0 37.76 38.4H576a38.4 38.4 0 1 0 0-76.16H87.68a371.2 371.2 0 0 1 371.2-371.2zM261.76 288a197.12 197.12 0 1 1 196.48 197.12A197.12 197.12 0 0 1 261.76 288z" p-id="19811"></path></svg>