<?xml version="1.0" standalone="no"?><!DOCTYPE svg PUBLIC "-//W3C//DTD SVG 1.1//EN" "http://www.w3.org/Graphics/SVG/1.1/DTD/svg11.dtd"><svg t="1723450475033" class="icon" viewBox="0 0 1024 1024" version="1.1" xmlns="http://www.w3.org/2000/svg" p-id="142033" xmlns:xlink="http://www.w3.org/1999/xlink" width="16" height="16"><path d="M640 96c35.392 0 64 26.624 64 59.456v211.648h160c35.328 0 64 26.624 64 59.52v441.92c0 32.832-28.608 59.456-64 59.456h-704c-35.328 0-64-26.624-64-59.456V426.56c0-32.832 28.672-59.52 64-59.52H320V155.52c0-32.896 28.672-59.456 64-59.456h256z m-472.064 568.32v196.864H323.84v-118.848c0-11.968 6.848-23.04 18.048-28.992a38.4 38.4 0 0 1 35.968 0c10.88 5.568 17.792 16.704 17.92 28.992v118.848H636.16v-118.848c0-18.496 16.128-33.472 36.032-33.472 19.84 0 36.032 14.976 36.032 33.472v118.848h147.84v-196.928H167.872z m464.064-501.504h-240v271.232h-224v163.456h688V433.92h-224V162.816z" fill="currentColor" p-id="142034"></path></svg>