<?xml version="1.0" standalone="no"?><!DOCTYPE svg PUBLIC "-//W3C//DTD SVG 1.1//EN" "http://www.w3.org/Graphics/SVG/1.1/DTD/svg11.dtd"><svg t="1723448399784" class="icon" viewBox="0 0 1024 1024" version="1.1" xmlns="http://www.w3.org/2000/svg" p-id="109396" xmlns:xlink="http://www.w3.org/1999/xlink" width="16" height="16"><path d="M950.857143 384h-73.142857v256h73.142857c21.942857 0 36.571429 14.628571 36.571428 36.571429s-14.628571 36.571429-36.571428 36.571428h-73.142857v109.714286c0 21.942857-14.628571 36.571429-36.571429 36.571428s-36.571429-14.628571-36.571428-36.571428v-109.714286h-256v109.714286c0 21.942857-14.628571 36.571429-36.571429 36.571428s-36.571429-14.628571-36.571429-36.571428v-109.714286H219.428571v109.714286c0 21.942857-14.628571 36.571429-36.571428 36.571428s-36.571429-14.628571-36.571429-36.571428v-109.714286H73.142857c-21.942857 0-36.571429-14.628571-36.571428-36.571428s14.628571-36.571429 36.571428-36.571429h73.142857v-256H73.142857c-21.942857 0-36.571429-14.628571-36.571428-36.571429s14.628571-36.571429 36.571428-36.571428h73.142857v-109.714286c0-21.942857 14.628571-36.571429 36.571429-36.571428s36.571429 14.628571 36.571428 36.571428v109.714286h256v-109.714286c0-21.942857 14.628571-36.571429 36.571429-36.571428s36.571429 14.628571 36.571429 36.571428v109.714286h256v-109.714286c0-21.942857 14.628571-36.571429 36.571428-36.571428s36.571429 14.628571 36.571429 36.571428v109.714286h73.142857c21.942857 0 36.571429 14.628571 36.571428 36.571428s-14.628571 36.571429-36.571428 36.571429z m-731.428572 0v256h256v-256H219.428571z m329.142858 0v256h256v-256h-256z" fill="currentColor" p-id="109397"></path></svg>