<?xml version="1.0" standalone="no"?><!DOCTYPE svg PUBLIC "-//W3C//DTD SVG 1.1//EN" "http://www.w3.org/Graphics/SVG/1.1/DTD/svg11.dtd"><svg t="1731466610498" class="icon" viewBox="0 0 1024 1024" version="1.1" xmlns="http://www.w3.org/2000/svg" p-id="3502" xmlns:xlink="http://www.w3.org/1999/xlink" width="32" height="32"><path d="M896 87.771429V0h-658.285714a109.714286 109.714286 0 0 0-109.714286 106.788571v811.885715A111.177143 111.177143 0 0 0 232.594286 1024h663.405714V155.794286H249.417143A33.645714 33.645714 0 0 1 219.428571 121.417143a34.377143 34.377143 0 0 1 31.451429-34.377143h648.777143l-3.657143 0.731429zM555.154286 860.16H462.994286v-91.428571h92.16v91.428571z m-219.428572-454.948571a190.171429 190.171429 0 0 1 38.034286-60.708572 177.005714 177.005714 0 0 1 59.245714-40.228571A200.411429 200.411429 0 0 1 512 292.571429a242.834286 242.834286 0 0 1 93.622857 15.36c22.308571 8.557714 42.715429 21.504 59.977143 38.034285 13.677714 13.458286 24.356571 29.696 31.451429 47.542857 4.827429 14.628571 7.094857 29.988571 6.582857 45.348572a161.645714 161.645714 0 0 1-9.508572 61.44c-5.851429 14.628571-13.677714 28.525714-23.405714 40.96a169.691429 169.691429 0 0 1-32.182857 28.525714l-35.108572 26.331429c-11.702857 8.777143-21.942857 19.017143-30.72 30.72a92.891429 92.891429 0 0 0-18.285714 45.348571v22.674286H463.725714v-27.794286a163.84 163.84 0 0 1 12.434286-54.857143 161.645714 161.645714 0 0 1 24.137143-38.034285 214.308571 214.308571 0 0 1 29.988571-27.794286c10.971429-8.045714 21.211429-16.822857 30.72-24.868572A120.685714 120.685714 0 0 0 585.142857 491.52a73.142857 73.142857 0 0 0 8.777143-41.691429 86.308571 86.308571 0 0 0-21.211429-62.902857A78.994286 78.994286 0 0 0 512 365.714286a86.308571 86.308571 0 0 0-42.422857 9.508571c-11.702857 6.290286-21.942857 14.994286-29.988572 25.6a123.611429 123.611429 0 0 0-13.897142 38.034286 231.862857 231.862857 0 0 0-5.12 33.645714H320.365714a219.428571 219.428571 0 0 1 13.897143-67.291428h1.462857z" p-id="3503"></path></svg>