<?xml version="1.0" standalone="no"?><!DOCTYPE svg PUBLIC "-//W3C//DTD SVG 1.1//EN" "http://www.w3.org/Graphics/SVG/1.1/DTD/svg11.dtd"><svg t="1723701864878" class="icon" viewBox="0 0 1146 1024" version="1.1" xmlns="http://www.w3.org/2000/svg" p-id="54941" xmlns:xlink="http://www.w3.org/1999/xlink" width="48" height="48"><path d="M1135.080048 42.908916v0.040944c-11.341383-25.139384-35.620952-42.663255-63.872051-42.663255H282.920432c-28.2511 0-52.530668 17.52387-63.790164 42.663255a75.663814 75.663814 0 0 0-6.878529 30.994322V576.895642c0 7.165134 1.310196 13.961775 3.193603 20.471811 8.598161 30.707717 35.416234 53.226709 67.434146 53.226709h487.106278a20.963135 20.963135 0 0 1 11.955537 6.960416c2.170012 4.094362 4.913235 7.779288 8.270612 10.931947l78.366094 74.92683a67.556977 67.556977 0 0 0 51.42519 24.607117c3.398321 0 6.632867-0.655098 9.9493-1.187365 17.52387-2.784166 33.287165-12.283087 43.973451-26.531468 5.65022-7.369852 8.761935-16.418393 8.802878-25.753538l0.368493-61.128829a17.52387 17.52387 0 0 1 7.083247-2.82511h80.986485c32.0998 0 58.99976-22.60088 67.638865-53.185765 2.006238-6.67381 3.070772-13.634226 3.152659-20.635586V74.107957c0-11.177609-2.538505-21.70012-6.837585-31.199041zM487.802319 384.17401A63.790164 63.790164 0 0 1 424.17593 320.179128c0-35.334346 28.414874-63.994882 63.544502-63.994882h0.163774c35.129628 0 63.585446 28.660536 63.544503 63.994882 0 35.334346-28.496761 63.953938-63.62639 63.953939z m212.006078 0a63.790164 63.790164 0 0 1-63.667333-63.953938c0-35.334346 28.455818-63.994882 63.585445-63.994882h0.163775c35.129628 0 63.585446 28.660536 63.544502 63.994882 0 35.334346-28.496761 63.953938-63.626389 63.953938z m215.65006 0a63.790164 63.790164 0 0 1-63.667333-63.953938c0-35.334346 28.455818-63.994882 63.585445-63.994882h0.163775c35.129628 0 63.585446 28.660536 63.544502 63.994882 0 35.334346-28.496761 63.953938-63.626389 63.953938z" fill="currentColor" p-id="54942"></path><path d="M706.113715 846.304678l-25.958257-25.09844h-0.45038l-105.798321-100.47565H297.005038c-152.433107-1.310196-156.363695-126.597681-156.363695-126.597681l-0.040943-299.952979a42.090044 42.090044 0 0 0-41.47589-37.954738h-28.251099C31.936026 256.22519 0.245662 289.307637 0.245662 330.005598v502.705797c0 40.697961 31.813195 73.780408 70.832467 73.780408h80.945542a17.687645 17.687645 0 0 1 7.165133 2.866054l0.327549 61.087885c0 3.684926 0.818872 7.247021 1.80152 10.85006 1.35114 5.363615 3.684926 10.440624 6.960416 14.903478 13.511395 17.605758 33.082447 27.718832 53.881807 27.718833h0.081887c19.611995 0 38.077569-8.92571 51.466134-24.566174l18.834066-18.056137 59.45014-56.911636c2.620392-2.456617 6.305318-7.779288 8.229668-10.809116a20.963135 20.963135 0 0 1 11.996482-7.042303h320.588564c20.267093 0 38.527949-9.007597 51.466134-23.337865l-0.45038-0.491323h0.696041l-38.364174-36.439824z" fill="currentColor" p-id="54943"></path></svg>