<?xml version="1.0" standalone="no"?><!DOCTYPE svg PUBLIC "-//W3C//DTD SVG 1.1//EN" "http://www.w3.org/Graphics/SVG/1.1/DTD/svg11.dtd"><svg t="1723701864878" class="icon" viewBox="0 0 1024 1024" version="1.1" xmlns="http://www.w3.org/2000/svg" p-id="54941" xmlns:xlink="http://www.w3.org/1999/xlink" width="32" height="32"><path
  d="m 213.33333,713.03953 v 42.66667 a 85.333333,85.333333 0 0 0 78.93334,85.12 l 6.4,0.21333 H 384 a 42.666667,42.666667 0 0 1 0,85.33333 H 298.66667 A 170.66667,170.66667 0 0 1 128,755.7062 v -42.66667 a 42.666667,42.666667 0 0 1 85.33333,0 z M 773.376,470.43686 944.04267,897.10353 a 21.333333,21.333333 0 0 1 -19.84,29.26933 H 878.208 A 21.333333,21.333333 0 0 1 858.41067,912.97553 L 812.544,798.37286 H 638.03733 L 592.256,912.97553 a 21.333333,21.333333 0 0 1 -19.84,13.39733 H 526.50667 A 21.333333,21.333333 0 0 1 506.70933,897.10353 L 677.376,470.43686 a 21.333333,21.333333 0 0 1 19.79733,-13.39733 h 56.40534 a 21.333333,21.333333 0 0 1 19.84,13.39733 z m -48.04267,109.696 -53.20533,132.90667 h 106.32533 z m -384,-443.09333 v 64 H 490.66667 A 21.333333,21.333333 0 0 1 512,222.37286 v 256 A 21.333333,21.333333 0 0 1 490.66667,499.7062 H 341.33333 V 606.37286 A 21.333333,21.333333 0 0 1 320,627.7062 H 277.33333 A 21.333333,21.333333 0 0 1 256,606.37286 V 499.7062 H 106.66667 A 21.333333,21.333333 0 0 1 85.333333,478.37286 v -256 A 21.333333,21.333333 0 0 1 106.66667,201.03953 H 256 v -64 a 21.333333,21.333333 0 0 1 21.33333,-21.33332 H 320 a 21.333333,21.333333 0 0 1 21.33333,21.33332 z m 384,21.33333 A 170.66667,170.66667 0 0 1 896,329.03953 v 42.66667 a 42.666667,42.666667 0 0 1 -85.33333,0 V 329.03953 A 85.333333,85.333333 0 0 0 725.33333,243.7062 H 640 a 42.66667,42.66667 0 0 1 0,-85.33334 z M 256,286.37286 h -85.33333 v 128 H 256 Z m 170.66667,0 h -85.33334 v 128 h 85.33334 z"
  fill="currentColor"
  p-id="28131"
  id="path42" /></svg>