<?xml version="1.0" standalone="no"?><!DOCTYPE svg PUBLIC "-//W3C//DTD SVG 1.1//EN" "http://www.w3.org/Graphics/SVG/1.1/DTD/svg11.dtd"><svg t="1730279536582" class="icon" viewBox="0 0 1024 1024" version="1.1" xmlns="http://www.w3.org/2000/svg" p-id="28130" xmlns:xlink="http://www.w3.org/1999/xlink" width="32" height="32"><path d="M213.333333 682.666667v42.666666a85.333333 85.333333 0 0 0 78.933334 85.12L298.666667 810.666667h85.333333a42.666667 42.666667 0 0 1 0 85.333333H298.666667a170.666667 170.666667 0 0 1-170.666667-170.666667v-42.666666a42.666667 42.666667 0 0 1 85.333333 0z m560.042667-242.602667l170.666667 426.666667a21.333333 21.333333 0 0 1-19.84 29.269333h-45.994667a21.333333 21.333333 0 0 1-19.797333-13.397333L812.544 768h-174.506667l-45.781333 114.602667a21.333333 21.333333 0 0 1-19.84 13.397333H526.506667a21.333333 21.333333 0 0 1-19.797334-29.269333l170.666667-426.666667a21.333333 21.333333 0 0 1 19.797333-13.397333h56.405334a21.333333 21.333333 0 0 1 19.84 13.397333zM725.333333 549.76L672.128 682.666667h106.325333L725.333333 549.76zM341.333333 106.666667V170.666667h149.333334a21.333333 21.333333 0 0 1 21.333333 21.333333v256a21.333333 21.333333 0 0 1-21.333333 21.333333H341.333333v106.666667a21.333333 21.333333 0 0 1-21.333333 21.333333h-42.666667a21.333333 21.333333 0 0 1-21.333333-21.333333V469.333333H106.666667a21.333333 21.333333 0 0 1-21.333334-21.333333v-256a21.333333 21.333333 0 0 1 21.333334-21.333333H256V106.666667a21.333333 21.333333 0 0 1 21.333333-21.333334h42.666667a21.333333 21.333333 0 0 1 21.333333 21.333334z m384 21.333333a170.666667 170.666667 0 0 1 170.666667 170.666667v42.666666a42.666667 42.666667 0 0 1-85.333333 0V298.666667a85.333333 85.333333 0 0 0-85.333334-85.333334h-85.333333a42.666667 42.666667 0 0 1 0-85.333333h85.333333zM256 256H170.666667v128h85.333333V256z m170.666667 0H341.333333v128h85.333334V256z" fill="#000000" p-id="28131"></path></svg>