<?xml version="1.0" standalone="no"?><!DOCTYPE svg PUBLIC "-//W3C//DTD SVG 1.1//EN" "http://www.w3.org/Graphics/SVG/1.1/DTD/svg11.dtd"><svg t="1727679765269" class="icon" viewBox="0 0 1024 1024" version="1.1" xmlns="http://www.w3.org/2000/svg" p-id="19888" xmlns:xlink="http://www.w3.org/1999/xlink" width="16" height="16"><path d="M928 928c-12.4 0-24.2-7.2-29.4-19.4L852 800H620l-46.6 108.6c-7 16.2-25.8 23.8-42 16.8s-23.8-25.8-16.8-42l192-448c5-11.8 16.6-19.4 29.4-19.4s24.4 7.6 29.4 19.4l192 448c7 16.2-0.6 35-16.8 42-4.2 1.8-8.4 2.6-12.6 2.6z m-280.6-192h177.2L736 529.2 647.4 736zM160 800c-11 0-21.6-5.6-27.6-15.8-9-15.2-4-34.8 11.2-43.8 1.2-0.6 118.8-71.2 229.4-206.6 78.6-96.2 125.6-216.4 146.2-277.8H96c-17.6 0-32-14.4-32-32s14.4-32 32-32h256V128c0-17.6 14.4-32 32-32s32 14.4 32 32v64h256c17.6 0 32 14.4 32 32s-14.4 32-32 32h-85.4c-17.4 56.6-68.2 201.2-163.8 318.2-118.2 144.8-241.4 218.2-246.6 221.4-5 3-10.6 4.4-16.2 4.4z" p-id="19889"></path><path d="M512 704c-6.8 0-13.6-2.2-19.6-6.6-3-2.4-74.2-57.6-149.8-155.8-75-97.2-113.6-171.8-115.2-175-8-15.8-1.8-35 13.8-43 15.8-8 35-1.8 43 13.8 0.4 0.8 37.8 72.8 108.8 165 70.2 91.2 137.6 143.6 138.2 144.2 14 10.8 16.6 31 5.8 44.8-6 8.4-15.4 12.6-25 12.6z" p-id="19890"></path></svg>