<?xml version="1.0" standalone="no"?><!DOCTYPE svg PUBLIC "-//W3C//DTD SVG 1.1//EN" "http://www.w3.org/Graphics/SVG/1.1/DTD/svg11.dtd"><svg t="1723447970938" class="icon" viewBox="0 0 1024 1024" version="1.1" xmlns="http://www.w3.org/2000/svg" p-id="97723" xmlns:xlink="http://www.w3.org/1999/xlink" width="16" height="16"><path d="M768 442.181818a69.818182 69.818182 0 0 1 69.818182 69.818182v325.818182a69.818182 69.818182 0 0 1-69.818182 69.818182H256a69.818182 69.818182 0 0 1-69.818182-69.818182V512a69.818182 69.818182 0 0 1 69.818182-69.818182h512m0-69.818182H256a139.636364 139.636364 0 0 0-139.636364 139.636364v325.818182a139.636364 139.636364 0 0 0 139.636364 139.636363h512a139.636364 139.636364 0 0 0 139.636364-139.636363V512a139.636364 139.636364 0 0 0-139.636364-139.636364z" fill="currentColor" p-id="97724"></path><path d="M709.818182 442.181818H279.272727v-162.909091a232.727273 232.727273 0 1 1 465.454546 0 34.909091 34.909091 0 1 1-69.818182 0 162.909091 162.909091 0 1 0-325.818182 0v93.090909h360.727273a34.909091 34.909091 0 0 1 0 69.818182zM512 779.636364a34.909091 34.909091 0 0 1-34.909091-34.909091v-139.636364a34.909091 34.909091 0 0 1 69.818182 0v139.636364a34.909091 34.909091 0 0 1-34.909091 34.909091z" fill="currentColor" p-id="97725"></path></svg>