<?xml version="1.0" standalone="no"?><!DOCTYPE svg PUBLIC "-//W3C//DTD SVG 1.1//EN" "http://www.w3.org/Graphics/SVG/1.1/DTD/svg11.dtd"><svg t="1723693303279" class="icon" viewBox="0 0 1024 1024" version="1.1" xmlns="http://www.w3.org/2000/svg" p-id="1448" xmlns:xlink="http://www.w3.org/1999/xlink" width="16" height="16"><path d="M170.666667 149.333333h682.666666a42.666667 42.666667 0 0 1 0 85.333334H170.666667a42.666667 42.666667 0 1 1 0-85.333334z m0 640h682.666666a42.666667 42.666667 0 0 1 0 85.333334H170.666667a42.666667 42.666667 0 0 1 0-85.333334z m256-213.333333h426.666666a42.666667 42.666667 0 0 1 0 85.333333H426.666667a42.666667 42.666667 0 0 1 0-85.333333z m0-213.333333h426.666666a42.666667 42.666667 0 0 1 0 85.333333H426.666667a42.666667 42.666667 0 0 1 0-85.333333z m-289.706667 172.373333a34.133333 34.133333 0 0 1 0-46.08l109.568-116.736a29.610667 29.610667 0 0 1 21.589333-9.557333c16.853333 0 30.549333 14.592 30.549334 32.554666v233.557334a33.706667 33.706667 0 0 1-8.96 23.04 29.226667 29.226667 0 0 1-43.178667 0L136.96 535.04z" fill="currentColor" p-id="1449"></path></svg>