<?xml version="1.0" standalone="no"?><!DOCTYPE svg PUBLIC "-//W3C//DTD SVG 1.1//EN" "http://www.w3.org/Graphics/SVG/1.1/DTD/svg11.dtd"><svg t="1730272773868" class="icon" viewBox="0 0 1024 1024" version="1.1" xmlns="http://www.w3.org/2000/svg" p-id="22204" xmlns:xlink="http://www.w3.org/1999/xlink" width="32" height="32"><path d="M242.345 129v767c0 8.837-7.164 16-16 16h-97c-8.837 0-16-7.163-16-16V129c0-8.837 7.163-16 16-16h97c8.836 0 16 7.163 16 16zM606.17 577.528v107.025c0 15.032-12.186 27.218-27.217 27.218a27.218 27.218 0 0 1-16.555-5.614L338.373 534.49c-11.932-9.143-14.192-26.227-5.05-38.159a27.218 27.218 0 0 1 5.05-5.049l224.026-171.667c11.931-9.143 29.016-6.882 38.159 5.05a27.218 27.218 0 0 1 5.613 16.554v107.025h335.684c10.021 0 18.145 8.124 18.145 18.145v92.994c0 10.021-8.124 18.145-18.145 18.145H606.17z" p-id="22205"></path></svg>