<?xml version="1.0" standalone="no"?><!DOCTYPE svg PUBLIC "-//W3C//DTD SVG 1.1//EN" "http://www.w3.org/Graphics/SVG/1.1/DTD/svg11.dtd"><svg t="1727420260387" class="icon" viewBox="0 0 1024 1024" version="1.1" xmlns="http://www.w3.org/2000/svg" p-id="29170" xmlns:xlink="http://www.w3.org/1999/xlink" width="16" height="16"><path d="M253.2608 278.8352h339.328c12.5696 0 18.8672 6.272 18.8672 18.8416s-6.2976 18.8416-18.8672 18.8416H253.2608c-12.5696 0-18.8672-6.272-18.8672-18.8416 0-12.544 6.2976-18.8416 18.8672-18.8416zM667.9552 278.8352h94.2592c12.544 0 18.8416 6.272 18.8416 18.8416s-6.272 18.8416-18.8416 18.8416h-94.2592c-12.5696 0-18.8416-6.272-18.8416-18.8416 0-12.544 6.272-18.8416 18.8416-18.8416z" p-id="29171"></path><path d="M734.0032 250.496v94.2592c0 12.5696-6.272 18.8672-18.8416 18.8672s-18.8672-6.2976-18.8672-18.8672V250.496c0-12.544 6.2976-18.8416 18.8672-18.8416 12.544 0 18.8416 6.272 18.8416 18.8416z" p-id="29172"></path><path d="M818.7904 128a113.1008 113.1008 0 0 1 113.1008 113.1008v113.1264a113.152 113.152 0 0 1-113.1008 113.1264H215.5008A113.152 113.152 0 0 1 102.4 354.2272V241.1264A113.1008 113.1008 0 0 1 215.5008 128h603.2896z m0 60.3392H215.5008a52.7872 52.7872 0 0 0-52.7616 52.7616v113.1264a52.7872 52.7872 0 0 0 52.7616 52.7872h603.2896a52.8128 52.8128 0 0 0 52.7872-52.7872V241.1264a52.7872 52.7872 0 0 0-52.7872-52.7872zM427.5456 707.4816h183.8592c12.544 0 18.8416 6.272 18.8416 18.8416s-6.272 18.8672-18.8416 18.8672H427.52c-12.544 0-18.8416-6.2976-18.8416-18.8672 0-12.544 6.272-18.8416 18.8416-18.8416zM686.848 707.4816h94.2592c12.5696 0 18.8672 6.272 18.8672 18.8416s-6.2976 18.8672-18.8672 18.8672H686.848c-12.544 0-18.8416-6.2976-18.8416-18.8672 0-12.544 6.272-18.8416 18.8416-18.8416z" p-id="29173"></path><path d="M752.7936 679.1936v94.2592c0 12.5696-6.272 18.8672-18.8416 18.8672-12.544 0-18.8416-6.2976-18.8416-18.8672v-94.2592c0-12.544 6.272-18.8416 18.8416-18.8416s18.8416 6.272 18.8416 18.8416z" p-id="29174"></path><path d="M800 556.6464a113.1264 113.1264 0 0 1 113.1008 113.1264v113.1008A113.1264 113.1264 0 0 1 799.9744 896H415.1552A113.1008 113.1008 0 0 1 302.08 782.848v-113.1008a113.0752 113.0752 0 0 1 113.1008-113.1264H800z m0 60.3392H415.1296a52.7872 52.7872 0 0 0-52.7872 52.7872v113.1008a52.7872 52.7872 0 0 0 52.7872 52.7872h384.768a52.7872 52.7872 0 0 0 52.7616-52.7872v-113.1008a52.7872 52.7872 0 0 0-52.7872-52.7872h0.0768z" p-id="29175"></path><path d="M211.6352 405.8112v228.864c0 24.0384 18.304 43.8272 41.728 46.208l4.7872 0.2304h77.9264v64.0768h-77.9264a110.592 110.592 0 0 1-110.592-110.5408v-228.7872h64.0768v-0.0512z" p-id="29176"></path></svg>