<?xml version="1.0" encoding="UTF-8" standalone="no"?>
<svg
   t="1727420260387"
   class="icon"
   viewBox="0 0 1024 1024"
   version="1.1"
   p-id="29170"
   width="16"
   height="16"
   xmlns="http://www.w3.org/2000/svg"
   xmlns:svg="http://www.w3.org/2000/svg">
  <path
     d="m 221.47338,260.06201 h 375.18457 c 13.89782,0 20.86089,6.93477 20.86089,20.83259 0,13.89782 -6.96307,20.83258 -20.86089,20.83258 H 221.47338 c -13.89782,0 -20.86088,-6.93476 -20.86088,-20.83258 0,-13.86952 6.96306,-20.83259 20.86088,-20.83259 z m 458.51489,0 h 104.2195 c 13.86953,0 20.83259,6.93477 20.83259,20.83259 0,13.89782 -6.93475,20.83258 -20.83259,20.83258 h -104.2195 c -13.89782,0 -20.83258,-6.93476 -20.83258,-20.83258 0,-13.86952 6.93476,-20.83259 20.83258,-20.83259 z"
     p-id="29171"
     id="path2"
     style="stroke-width:1.10567" />
  <path
     d="m 753.01552,228.72824 v 104.2195 c 0,13.89783 -6.93476,20.86089 -20.83258,20.86089 -13.89782,0 -20.86089,-6.96306 -20.86089,-20.86089 v -104.2195 c 0,-13.86952 6.96307,-20.83259 20.86089,-20.83259 13.86952,0 20.83258,6.93476 20.83258,20.83259 z"
     p-id="29172"
     id="path4"
     style="stroke-width:1.10567" />
  <path
     d="M 846.76213,93.288154 A 125.05208,125.05208 0 0 1 971.81425,218.34024 v 125.0804 A 125.1087,125.1087 0 0 1 846.76213,468.50103 H 179.7233 A 125.1087,125.1087 0 0 1 54.671187,343.42064 V 218.36855 A 125.05208,125.05208 0 0 1 179.7233,93.288154 Z m 0,66.715206 H 179.7233 a 58.36519,58.36519 0 0 0 -58.33688,58.33688 v 125.0804 a 58.36519,58.36519 0 0 0 58.33688,58.36519 h 667.03883 a 58.393494,58.393494 0 0 0 58.36518,-58.36519 V 218.36855 A 58.36519,58.36519 0 0 0 846.76213,160.00336 Z M 414.17474,734.0032 h 203.28749 c 13.86951,0 20.83258,6.93477 20.83258,20.83259 0,13.89782 -6.93476,20.86088 -20.83258,20.86088 H 414.14644 c -13.86952,0 -20.83258,-6.96306 -20.83258,-20.86088 0,-13.86952 6.93476,-20.83259 20.83258,-20.83259 z m 286.70272,0 h 104.21951 c 13.89782,0 20.86088,6.93477 20.86088,20.83259 0,13.89782 -6.96306,20.86088 -20.86088,20.86088 H 700.87746 c -13.86952,0 -20.83257,-6.96306 -20.83257,-20.86088 0,-13.86952 6.93475,-20.83259 20.83257,-20.83259 z"
     p-id="29173"
     id="path6"
     style="stroke-width:1.10567" />
  <path
     d="m 773.79149,702.72603 v 104.21951 c 0,13.89782 -6.93476,20.86089 -20.83258,20.86089 -13.86951,0 -20.83258,-6.96307 -20.83258,-20.86089 V 702.72603 c 0,-13.86952 6.93476,-20.83258 20.83258,-20.83258 13.89782,0 20.83258,6.93476 20.83258,20.83258 z"
     p-id="29174"
     id="path8"
     style="stroke-width:1.10567" />
  <path
     d="m 825.98615,567.22935 a 125.08039,125.08039 0 0 1 125.0521,125.08039 v 125.05208 a 125.08039,125.08039 0 0 1 -125.0804,125.0804 H 400.47506 A 125.05208,125.05208 0 0 1 275.45127,817.33352 V 692.28143 a 125.02378,125.02378 0 0 1 125.0521,-125.08039 h 425.48278 z m 0,66.7152 H 400.44676 a 58.36519,58.36519 0 0 0 -58.36519,58.36519 v 125.05208 a 58.36519,58.36519 0 0 0 58.36519,58.36519 h 425.42618 a 58.36519,58.36519 0 0 0 58.33688,-58.36519 V 692.30974 a 58.36519,58.36519 0 0 0 -58.36518,-58.36519 h 0.0849 z"
     p-id="29175"
     id="path10"
     style="stroke-width:1.10567" />
  <path
     d="M 175.44923,400.45549 V 653.5034 c 0,26.57852 20.23818,48.45839 46.13737,51.09077 l 5.29307,0.25474 h 86.16083 v 70.84776 H 226.87967 A 122.27818,122.27818 0 0 1 104.60148,653.4751 v -252.963 h 70.84775 z"
     p-id="29176"
     id="path12"
     style="stroke-width:1.10567" />
</svg>
