<?xml version="1.0" standalone="no"?><!DOCTYPE svg PUBLIC "-//W3C//DTD SVG 1.1//EN" "http://www.w3.org/Graphics/SVG/1.1/DTD/svg11.dtd"><svg t="1721631227305" class="icon" viewBox="0 0 1024 1024" version="1.1" xmlns="http://www.w3.org/2000/svg" p-id="22819" width="16" height="16" xmlns:xlink="http://www.w3.org/1999/xlink"><path d="M581.632 896h117.568A197.632 197.632 0 0 0 896 699.2v-374.4A197.664 197.664 0 0 0 699.2 128H579.2a5.152 5.152 0 0 0-4.8 4.8v758.4c-0.032 2.432 2.4 4.8 7.232 4.8z m146.368-422.4a76.8 76.8 0 1 1 0 153.6 75.808 75.808 0 0 1-76.8-76.8 74.368 74.368 0 0 1 76.8-76.8zM492.8 128h-168A197.696 197.696 0 0 0 128 324.8v374.4A197.664 197.664 0 0 0 324.8 896h168a5.152 5.152 0 0 0 4.8-4.768V132.8A5.12 5.12 0 0 0 492.8 128z m-55.168 705.632H324.8a134.208 134.208 0 0 1-134.4-134.4V324.8a134.208 134.208 0 0 1 134.4-134.4h110.4zM248 358.4A70.72 70.72 0 0 0 320 430.368a70.72 70.72 0 0 0 72-71.968A70.752 70.752 0 0 0 320 286.368 70.752 70.752 0 0 0 248 358.4z" fill="#E70012" p-id="22820"></path></svg>