<?xml version="1.0" standalone="no"?><!DOCTYPE svg PUBLIC "-//W3C//DTD SVG 1.1//EN" "http://www.w3.org/Graphics/SVG/1.1/DTD/svg11.dtd"><svg t="1727421501340" class="icon" viewBox="0 0 1024 1024" version="1.1" xmlns="http://www.w3.org/2000/svg" p-id="9359" xmlns:xlink="http://www.w3.org/1999/xlink" width="16" height="16"><path d="M465.454545 0c257.070545 0 465.454545 208.384 465.454546 465.454545a463.406545 463.406545 0 0 1-95.418182 282.391273l-9.634909 12.194909 170.542545 170.542546a46.545455 46.545455 0 0 1-61.44 69.678545l-4.375272-3.863273-170.542546-170.542545A463.499636 463.499636 0 0 1 465.454545 930.909091C208.384 930.909091 0 722.525091 0 465.454545S208.384 0 465.454545 0z m0 93.090909a372.363636 372.363636 0 1 0 0 744.727273 372.363636 372.363636 0 0 0 0-744.727273z m-2.327272 474.763636a58.181818 58.181818 0 1 1 0 116.363637 58.181818 58.181818 0 0 1 0-116.363637z m0-325.818181a46.545455 46.545455 0 0 1 46.545454 46.545454v186.181818a46.545455 46.545455 0 0 1-93.090909 0v-186.181818a46.545455 46.545455 0 0 1 46.545455-46.545454z" p-id="9360"></path></svg>