<?xml version="1.0" standalone="no"?><!DOCTYPE svg PUBLIC "-//W3C//DTD SVG 1.1//EN" "http://www.w3.org/Graphics/SVG/1.1/DTD/svg11.dtd"><svg t="1732694425234" class="icon" viewBox="0 0 4493 1024" version="1.1" xmlns="http://www.w3.org/2000/svg" p-id="19481" xmlns:xlink="http://www.w3.org/1999/xlink" width="140.40625" height="32"><path d="M53.492537 771.820896H15.283582V76.41791h122.268657c53.492537 0 106.985075 0 152.835821 38.208956 38.208955 38.208955 53.492537 91.701493 53.492537 145.19403 0 45.850746-22.925373 106.985075-61.134328 137.552238-45.850746 38.208955-99.343284 45.850746-152.835821 45.850747h-76.417911v328.597015z m84.059702-366.805971c45.850746 0 84.059701-7.641791 122.268657-38.208955 30.567164-30.567164 45.850746-61.134328 45.850746-106.985074 0-45.850746-15.283582-84.059701-53.492538-114.626866-38.208955-22.925373-76.41791-30.567164-122.268656-30.567164h-76.417911v282.746268h84.059702zM840.597015 557.850746c0 122.268657-99.343284 221.61194-221.61194 221.611941-122.268657 0-221.61194-99.343284-221.611941-221.611941 0-122.268657 99.343284-221.61194 221.611941-221.61194 122.268657 0 221.61194 99.343284 221.61194 221.61194z m-397.373134 0c0 99.343284 76.41791 183.402985 175.761194 183.402985 106.985075 0 183.402985-76.41791 183.402985-183.402985s-76.41791-183.402985-183.402985-183.402985C519.641791 374.447761 443.223881 458.507463 443.223881 557.850746zM1069.850746 695.402985l152.835821-366.80597 152.835821 366.80597 145.19403-343.880597h45.850746L1375.522388 794.746269l-152.835821-366.80597-152.835821 366.80597-191.044776-443.223881h38.208955l152.835821 343.880597zM1635.343284 565.492537c0 106.985075 68.776119 175.761194 168.119403 175.761194 68.776119 0 122.268657-38.208955 152.83582-99.343283l30.567165 22.925373c-38.208955 76.41791-106.985075 114.626866-191.044776 114.626866-122.268657 0-206.328358-99.343284-206.328359-221.611941 0-114.626866 84.059701-221.61194 206.328359-221.61194 129.910448 0 206.328358 99.343284 206.328358 221.61194h-366.80597z m320.955223-38.208955c-7.641791-76.41791-76.41791-145.19403-160.477611-145.19403s-160.477612 68.776119-168.119403 145.19403h328.597014zM2139.701493 405.014925c15.283582-38.208955 45.850746-61.134328 91.701492-61.134328 15.283582 0 30.567164 0 45.850746 7.641791l-22.925373 30.567164c-7.641791-7.641791-15.283582-7.641791-30.567164-7.641791-91.701493 0-84.059701 114.626866-84.059701 175.761194V764.179104h-38.208956V343.880597h38.208956v61.134328zM2353.671642 565.492537c0 106.985075 68.776119 175.761194 168.119403 175.761194 68.776119 0 122.268657-38.208955 152.835821-99.343283l38.208955 22.925373c-38.208955 76.41791-106.985075 114.626866-191.044776 114.626866-122.268657 0-206.328358-99.343284-206.328358-221.611941 0-114.626866 84.059701-221.61194 206.328358-221.61194 129.910448 0 206.328358 99.343284 206.328358 221.61194h-374.447761z m328.597015-38.208955C2674.626866 450.865672 2605.850746 382.089552 2521.791045 382.089552s-160.477612 68.776119-168.119403 145.19403h328.597015zM3156.059701 695.402985c-30.567164 53.492537-99.343284 84.059701-160.477611 84.059702-129.910448 0-206.328358-99.343284-206.328359-221.611941s76.41791-221.61194 206.328359-221.61194c68.776119 0 129.910448 30.567164 160.477611 84.059701V15.283582h38.208956v756.537314h-38.208956v-76.417911z m0-145.19403c0-99.343284-68.776119-175.761194-168.119402-175.761194-99.343284 0-160.477612 91.701493-160.477612 183.402985 0 99.343284 61.134328 183.402985 168.119403 183.402985 99.343284 0 160.477612-84.059701 160.477611-191.044776zM3622.208955 15.283582h38.208955v405.014925c38.208955-53.492537 99.343284-84.059701 160.477612-84.059701 129.910448 0 206.328358 91.701493 206.328359 221.61194s-84.059701 221.61194-206.328359 221.611941c-61.134328 0-129.910448-30.567164-160.477612-84.059702v76.417911h-38.208955V15.283582z m366.80597 542.567164c0-91.701493-68.776119-183.402985-168.119403-183.402985-106.985075 0-168.119403 76.41791-168.119403 183.402985 0 99.343284 61.134328 183.402985 168.119403 183.402985 106.985075 0 168.119403-84.059701 168.119403-183.402985zM4057.791045 343.880597h45.850746l183.402985 382.089552 160.477612-382.089552h45.850746L4202.985075 1016.358209h-45.850747l99.343284-236.895522-198.686567-435.58209z" p-id="19482"></path></svg>