<?xml version="1.0" standalone="no"?><!DOCTYPE svg PUBLIC "-//W3C//DTD SVG 1.1//EN" "http://www.w3.org/Graphics/SVG/1.1/DTD/svg11.dtd"><svg t="1723452885696" class="icon" viewBox="0 0 1024 1024" version="1.1" xmlns="http://www.w3.org/2000/svg" p-id="34307" xmlns:xlink="http://www.w3.org/1999/xlink" width="16" height="16"><path d="M96 128L928 128a53.393333 53.393333 0 0 1 53.333333 53.333333L981.333333 842.666667a53.393333 53.393333 0 0 1-53.333333 53.333333l-832 0a53.393333 53.393333 0 0 1-53.333333-53.333333l0-661.333334a53.393333 53.393333 0 0 1 53.333333-53.333333zM927.99999999 853.333333a10.666667 10.666667 0 0 0 10.66666701-10.666666l0-661.333334a10.666667 10.666667 0 0 0-10.66666701-10.666666l-831.99999998 0a10.666667 10.666667 0 0 0-10.66666701 10.666666L85.333333 842.666667a10.666667 10.666667 0 0 0 10.66666701 10.666666z" fill="currentColor" p-id="34308"></path></svg>