<?xml version="1.0" standalone="no"?><!DOCTYPE svg PUBLIC "-//W3C//DTD SVG 1.1//EN" "http://www.w3.org/Graphics/SVG/1.1/DTD/svg11.dtd"><svg t="1723628178196" class="icon" viewBox="0 0 1024 1024" version="1.1" xmlns="http://www.w3.org/2000/svg" p-id="120615" xmlns:xlink="http://www.w3.org/1999/xlink" width="18" height="18"><path d="M780.9 902.4c-9.7 0-19.3-4.4-25.6-12.8-10.6-14.1-7.8-34.2 6.4-44.8C867.4 765.4 928 644.1 928 512c0-229.4-186.6-416-416-416-17.7 0-32-14.3-32-32s14.3-32 32-32c264.7 0 480 215.3 480 480 0 152.4-70 292.4-192 384-5.7 4.3-12.5 6.4-19.1 6.4zM512 992C247.3 992 32 776.7 32 512c0-130 51.1-251.7 144-342.8 12.6-12.4 32.9-12.2 45.3 0.4 12.4 12.6 12.2 32.9-0.4 45.3C140.3 293.8 96 399.3 96 512c0 229.4 186.6 416 416 416 17.7 0 32 14.3 32 32s-14.3 32-32 32z" fill="currentColor" p-id="120616"></path><path d="M601.6 230.4c-10.3 0-20.5-5-26.7-14.3L485.4 81.8c-9.8-14.7-5.8-34.6 8.9-44.4 14.7-9.8 34.6-5.8 44.4 8.9l89.6 134.4c9.8 14.7 5.8 34.6-8.9 44.4-5.5 3.6-11.7 5.3-17.8 5.3zM512 992c-10.3 0-20.5-5-26.7-14.3l-89.6-134.4c-9.8-14.7-5.8-34.6 8.9-44.4 14.7-9.8 34.5-5.8 44.4 8.9l89.6 134.4c9.8 14.7 5.8 34.6-8.9 44.4-5.4 3.7-11.6 5.4-17.7 5.4z" fill="currentColor" p-id="120617"></path></svg>