<?xml version="1.0" standalone="no"?><!DOCTYPE svg PUBLIC "-//W3C//DTD SVG 1.1//EN" "http://www.w3.org/Graphics/SVG/1.1/DTD/svg11.dtd"><svg t="1730279177623" class="icon" viewBox="0 0 1024 1024" version="1.1" xmlns="http://www.w3.org/2000/svg" p-id="22955" xmlns:xlink="http://www.w3.org/1999/xlink" width="32" height="32"><path d="M541.866667 72.533333c4.266667 0 4.266667-4.266667 4.266666-8.533333l4.266667-4.266667v-8.533333V42.666667 38.4 29.866667c0-4.266667-4.266667-4.266667-4.266667-8.533334 0 0 0-4.266667-4.266666-4.266666 0-4.266667-4.266667-4.266667-8.533334-4.266667l-4.266666-4.266667c-4.266667 0-4.266667 0-8.533334-4.266666H512C230.4 0 0 230.4 0 512c0 170.666667 85.333333 328.533333 226.133333 426.666667 8.533333 4.266667 17.066667 8.533333 25.6 8.533333 12.8 0 25.6-8.533333 34.133334-17.066667 12.8-21.333333 8.533333-46.933333-12.8-59.733333C157.866667 789.333333 85.333333 652.8 85.333333 512c0-183.466667 115.2-337.066667 277.333334-401.066667L298.666667 166.4c-17.066667 17.066667-21.333333 42.666667-4.266667 59.733333 8.533333 8.533333 21.333333 17.066667 34.133333 17.066667 8.533333 0 21.333333-4.266667 25.6-8.533333l187.733334-162.133334c0 4.266667 0 0 0 0zM1024 512c0-170.666667-85.333333-328.533333-226.133333-426.666667-21.333333-12.8-46.933333-8.533333-59.733334 12.8-12.8 21.333333-8.533333 46.933333 12.8 59.733334 119.466667 81.066667 187.733333 213.333333 187.733334 354.133333 0 183.466667-115.2 337.066667-277.333334 401.066667l64-55.466667c17.066667-17.066667 21.333333-42.666667 4.266667-59.733333s-42.666667-21.333333-59.733333-4.266667l-187.733334 157.866667c-4.266667 0-4.266667 4.266667-4.266666 8.533333l-4.266667 4.266667v29.866666c0 4.266667 4.266667 4.266667 4.266667 8.533334 0 0 0 4.266667 4.266666 4.266666 4.266667 4.266667 8.533333 4.266667 12.8 8.533334 0 0 4.266667 0 4.266667 4.266666s8.533333 4.266667 12.8 4.266667c281.6 0 512-230.4 512-512z" p-id="22956"></path></svg>