<?xml version="1.0" standalone="no"?><!DOCTYPE svg PUBLIC "-//W3C//DTD SVG 1.1//EN" "http://www.w3.org/Graphics/SVG/1.1/DTD/svg11.dtd"><svg t="1723702733078" class="icon" viewBox="0 0 1025 1024" version="1.1" xmlns="http://www.w3.org/2000/svg" p-id="58391" xmlns:xlink="http://www.w3.org/1999/xlink" width="16.015625" height="16"><path d="M977.19856 256H785.19856a48 48 0 1 0 0 96h76.112L655.26256 558.064l-27.808 27.808-4.768 4.768L561.19856 652.128 339.13456 430.064A47.824 47.824 0 0 0 305.19856 416a47.84 47.84 0 0 0-33.936 14.064l-256 256a48 48 0 1 0 67.872 67.872L305.19856 531.888l222.064 222.064A47.904 47.904 0 0 0 561.19856 768a47.84 47.84 0 0 0 33.936-14.064l95.424-95.44L929.19856 419.888V496a48 48 0 1 0 96 0V304a48 48 0 0 0-48-48z" fill="" p-id="58392" fill="currentColor"></path></svg>