<?xml version="1.0" standalone="no"?><!DOCTYPE svg PUBLIC "-//W3C//DTD SVG 1.1//EN" "http://www.w3.org/Graphics/SVG/1.1/DTD/svg11.dtd"><svg t="1723617961487" class="icon" viewBox="0 0 1024 1024" version="1.1" xmlns="http://www.w3.org/2000/svg" p-id="65768" xmlns:xlink="http://www.w3.org/1999/xlink" width="16" height="16"><path d="M 980.282 834.508 l -24.796 -223.165 c -0.954 -41.063 -34.652 -74.17 -75.936 -74.17 h -39.787 V 88.665 c 0 -15.98 -12.956 -28.936 -28.936 -28.936 c -15.982 0 -28.936 12.956 -28.936 28.936 v 448.507 H 550.404 V 88.665 c 0 -15.98 -12.956 -28.936 -28.936 -28.936 c -15.982 0 -28.936 12.956 -28.936 28.936 v 448.507 H 261.043 V 88.665 c 0 -15.98 -12.956 -28.936 -28.936 -28.936 c -15.982 0 -28.936 12.956 -28.936 28.936 v 448.507 h -57.87 c -41.323 0 -75.04 33.165 -75.94 74.272 L 44.179 852.462 c -0.17 1.65 -0.17 3.275 -0.067 4.876 c -0.015 0.587 -0.088 1.157 -0.088 1.747 v 21.702 c 0 41.882 34.074 75.957 75.957 75.957 h 788.504 c 41.883 0 75.957 -34.075 75.957 -75.957 v -21.702 c 0 -8.61 -1.507 -16.855 -4.16 -24.577 Z M 127.215 613.13 c 0 -9.97 8.112 -18.085 18.085 -18.085 h 734.25 c 9.971 0 18.085 8.114 18.085 18.085 v 1.604 l 18.756 168.812 a 75.872 75.872 0 0 0 -7.905 -0.417 H 119.981 c -3.555 0 -7.027 0.33 -10.454 0.805 l 17.53 -167.797 l 0.158 -3.007 Z m 799.356 267.657 c 0 9.971 -8.113 18.085 -18.085 18.085 H 119.981 c -9.974 0 -18.085 -8.114 -18.085 -18.085 v -21.702 c 0 -9.971 8.111 -18.085 18.085 -18.085 h 788.504 c 9.972 0 18.085 8.114 18.085 18.085 v 21.702 Z" p-id="65769" fill="currentColor"></path></svg>