<?xml version="1.0" standalone="no"?><!DOCTYPE svg PUBLIC "-//W3C//DTD SVG 1.1//EN" "http://www.w3.org/Graphics/SVG/1.1/DTD/svg11.dtd"><svg t="1723450043042" class="icon" viewBox="0 0 1024 1024" version="1.1" xmlns="http://www.w3.org/2000/svg" p-id="136599" xmlns:xlink="http://www.w3.org/1999/xlink" width="16" height="16"><path d="M682.666667 0a56.888889 56.888889 0 0 1 56.888889 56.888889v170.666667a56.888889 56.888889 0 0 1-56.888889 56.888888H56.888889a56.888889 56.888889 0 0 1-56.888889-56.888888V56.888889a56.888889 56.888889 0 0 1 56.888889-56.888889h625.777778z" fill="currentColor" p-id="136600"></path><path d="M682.666667 56.888889H56.888889v170.666667h625.777778z" fill="currentColor" p-id="136601"></path><path d="M682.666667 1024a56.888889 56.888889 0 0 0 56.888889-56.888889V455.111111a56.888889 56.888889 0 0 0-56.888889-56.888889H56.888889a56.888889 56.888889 0 0 0-56.888889 56.888889v512a56.888889 56.888889 0 0 0 56.888889 56.888889h625.777778z m0-56.888889H56.888889V455.111111h625.777778v512z" fill="currentColor" p-id="136602"></path><path d="M719.018667 682.666667c11.377778 0 20.536889 12.743111 20.536889 28.444444 0 13.937778-7.281778 25.6-16.839112 27.989333l-3.697777 0.455112H20.48c-11.377778 0-20.536889-12.743111-20.536889-28.444445 0-13.937778 7.281778-25.6 16.839111-27.989333L20.536889 682.666667H719.075556z" fill="currentColor" p-id="136603"></path><path d="M256 401.066667a28.444444 28.444444 0 0 1 27.989333 23.324444L284.444444 429.511111v563.2a28.444444 28.444444 0 0 1-56.433777 5.12L227.555556 992.711111v-563.2a28.444444 28.444444 0 0 1 28.444444-28.444444zM483.555556 401.066667a28.444444 28.444444 0 0 1 27.989333 23.324444L512 429.511111v563.2a28.444444 28.444444 0 0 1-56.433778 5.12L455.111111 992.711111v-563.2a28.444444 28.444444 0 0 1 28.444445-28.444444zM1017.514667 810.325333a28.444444 28.444444 0 0 1-0.227556 36.408889l-3.640889 3.640889-49.208889 40.391111-6.997333 5.176889a85.333333 85.333333 0 0 1-94.435556 0l-6.997333-5.12-49.208889-40.448-3.640889-3.640889a28.444444 28.444444 0 0 1 35.555556-43.235555l4.266667 2.901333 49.152 40.448 4.152888 2.844444a28.444444 28.444444 0 0 0 27.875556 0l4.152889-2.844444 49.152-40.391111 4.266667-2.958222a28.444444 28.444444 0 0 1 35.84 6.826666zM910.051556 284.444444a28.444444 28.444444 0 0 1 28.444444 28.444445v398.222222a28.444444 28.444444 0 1 1-56.888889 0v-398.222222a28.444444 28.444444 0 0 1 28.444445-28.444445z m47.388444-152.917333l6.997333 5.12 49.208889 40.504889a28.444444 28.444444 0 0 1-31.914666 46.819556l-4.266667-2.844445-49.152-40.504889a28.444444 28.444444 0 0 0-32.028445-2.844444l-4.152888 2.844444-49.152 40.448a28.444444 28.444444 0 0 1-39.822223-40.334222l3.640889-3.584 49.208889-40.448a85.333333 85.333333 0 0 1 101.432889-5.12z" fill="currentColor" p-id="136604"></path></svg>