<?xml version="1.0" standalone="no"?><!DOCTYPE svg PUBLIC "-//W3C//DTD SVG 1.1//EN" "http://www.w3.org/Graphics/SVG/1.1/DTD/svg11.dtd"><svg t="1723450263168" class="icon" viewBox="0 0 1024 1024" version="1.1" xmlns="http://www.w3.org/2000/svg" p-id="137916" xmlns:xlink="http://www.w3.org/1999/xlink" width="16" height="16"><path d="M881.92 564.48a30.72 30.72 0 0 0 30.72-30.72 30.72 30.72 0 0 0-8.96-21.76L768 375.04a32 32 0 0 0-48.64 0L580.48 512a28.16 28.16 0 0 0-8.96 21.76 31.36 31.36 0 0 0 8.96 21.76 30.72 30.72 0 0 0 43.52 0l118.4-117.76 117.76 117.76a30.72 30.72 0 0 0 21.76 8.96z" fill="currentColor" p-id="137917"></path><path d="M768 858.24l135.68-136.96a30.72 30.72 0 1 0-43.52-43.52l-117.12 117.76-119.04-118.4a31.36 31.36 0 0 0-43.52 0 28.16 28.16 0 0 0-8.96 21.76 30.08 30.08 0 0 0 8.96 21.76l136.32 136.96a36.48 36.48 0 0 0 51.2 0.64z" fill="currentColor" p-id="137918"></path><path d="M912.64 239.36H164.48a35.84 35.84 0 0 1 0-71.68h748.16a35.84 35.84 0 1 1 0 71.68zM443.52 453.12H164.48a35.84 35.84 0 1 1 0-69.12h279.04a35.84 35.84 0 1 1 0 71.68zM392.32 819.2H164.48a35.84 35.84 0 1 1 0-71.68h227.84a35.84 35.84 0 1 1 0 71.68z" fill="currentColor" p-id="137919"></path></svg>