<?xml version="1.0" standalone="no"?><!DOCTYPE svg PUBLIC "-//W3C//DTD SVG 1.1//EN" "http://www.w3.org/Graphics/SVG/1.1/DTD/svg11.dtd"><svg t="1723452193549" class="icon" viewBox="0 0 1062 1024" version="1.1" xmlns="http://www.w3.org/2000/svg" p-id="13498" xmlns:xlink="http://www.w3.org/1999/xlink" width="16.59375" height="16"><path d="M0 0m98.282574 0l245.699918 0q98.282574 0 98.282574 98.282574l0 245.699918q0 98.282574-98.282574 98.282574l-245.699918 0q-98.282574 0-98.282574-98.282574l0-245.699918q0-98.282574 98.282574-98.282574Z" p-id="13499" fill="currentColor"></path><path d="M0 548.028637m98.282574 0l245.699918 0q98.282574 0 98.282574 98.282574l0 245.699919q0 98.282574-98.282574 98.282574l-245.699918 0q-98.282574 0-98.282574-98.282574l0-245.699919q0-98.282574 98.282574-98.282574Z" p-id="13500" fill="currentColor"></path><path d="M562.456274 0m98.282574 0l245.699919 0q98.282574 0 98.282574 98.282574l0 245.699918q0 98.282574-98.282574 98.282574l-245.699919 0q-98.282574 0-98.282574-98.282574l0-245.699918q0-98.282574 98.282574-98.282574Z" p-id="13501" fill="currentColor"></path><path d="M1054.468667 977.495204l-96.014816-96.014815a213.299643 213.299643 0 1 0-33.886048 43.11348l91.427165 91.427166a27.241776 27.241776 0 0 0 38.525831-38.525831z m-279.286206-45.707066a160.307076 160.307076 0 1 1 160.307076-160.241911 160.241911 160.241911 0 0 1-160.307076 160.241911z" p-id="13502" fill="currentColor"></path></svg>