<?xml version="1.0" standalone="no"?><!DOCTYPE svg PUBLIC "-//W3C//DTD SVG 1.1//EN" "http://www.w3.org/Graphics/SVG/1.1/DTD/svg11.dtd"><svg t="1723450896725" class="icon" viewBox="0 0 1024 1024" version="1.1" xmlns="http://www.w3.org/2000/svg" p-id="152968" xmlns:xlink="http://www.w3.org/1999/xlink" width="16" height="16"><path d="M966.4 924.8L736 697.6c60.8-67.2 96-156.8 96-256C832 224 656 51.2 441.6 51.2c-217.6 0-390.4 176-390.4 390.4 0 217.6 176 390.4 390.4 390.4 99.2 0 188.8-35.2 256-96L928 963.2c9.6 9.6 28.8 9.6 38.4 0 12.8-12.8 12.8-28.8 0-38.4z m-864-483.2c0-185.6 150.4-339.2 339.2-339.2s339.2 150.4 339.2 339.2c0 89.6-35.2 172.8-92.8 233.6-3.2 0-3.2 3.2-6.4 3.2-3.2 3.2-3.2 3.2-3.2 6.4-60.8 57.6-144 92.8-233.6 92.8-188.8 3.2-342.4-150.4-342.4-336z" fill="currentColor" p-id="152969"></path></svg>