<?xml version="1.0" standalone="no"?><!DOCTYPE svg PUBLIC "-//W3C//DTD SVG 1.1//EN" "http://www.w3.org/Graphics/SVG/1.1/DTD/svg11.dtd"><svg t="1723701807818" class="icon" viewBox="0 0 1024 1024" version="1.1" xmlns="http://www.w3.org/2000/svg" p-id="52632" xmlns:xlink="http://www.w3.org/1999/xlink" width="48" height="48"><path d="M298 111v128c0 19.137 15.358 34.686 34.421 34.995L333 274h377c19.137 0 34.686-15.358 34.995-34.421L745 239V111h74c49.706 0 90 40.294 90 90v685c0 49.706-40.294 90-90 90H201c-49.706 0-90-40.294-90-90V201c0-49.706 40.294-90 90-90h97z m458.5 540h-464c-20.71 0-37.5 16.79-37.5 37.5s16.79 37.5 37.5 37.5h464c20.71 0 37.5-16.79 37.5-37.5S777.21 651 756.5 651z m0-209h-464c-20.71 0-37.5 16.79-37.5 37.5s16.79 37.5 37.5 37.5h464c20.71 0 37.5-16.79 37.5-37.5S777.21 442 756.5 442zM669 52c19.33 0 35 15.67 35 35v114c0 19.33-15.67 35-35 35H374c-19.33 0-35-15.67-35-35V87c0-19.33 15.67-35 35-35h295z" fill="currentColor" p-id="52633"></path></svg>