<?xml version="1.0" standalone="no"?><!DOCTYPE svg PUBLIC "-//W3C//DTD SVG 1.1//EN" "http://www.w3.org/Graphics/SVG/1.1/DTD/svg11.dtd"><svg t="1723701889396" class="icon" viewBox="0 0 1024 1024" version="1.1" xmlns="http://www.w3.org/2000/svg" p-id="56007" xmlns:xlink="http://www.w3.org/1999/xlink" width="48" height="48"><path d="M225.28 204.8v71.68a92.16 92.16 0 0 0 87.81824 92.0576L317.44 368.64a92.16 92.16 0 0 0 92.0576-87.81824L409.6 276.48V204.8h204.8v71.68a92.16 92.16 0 0 0 87.81824 92.0576L706.56 368.64a92.16 92.16 0 0 0 92.0576-87.81824L798.72 276.48V204.8h40.96a122.88 122.88 0 0 1 122.88 122.88v491.52a122.88 122.88 0 0 1-122.88 122.88H184.32a122.88 122.88 0 0 1-122.88-122.88V327.68a122.88 122.88 0 0 1 122.88-122.88h40.96z m92.16-102.4A30.72 30.72 0 0 1 348.16 133.12v143.36a30.72 30.72 0 0 1-61.44 0v-143.36A30.72 30.72 0 0 1 317.44 102.4z m389.12 0A30.72 30.72 0 0 1 737.28 133.12v143.36a30.72 30.72 0 0 1-61.44 0v-143.36A30.72 30.72 0 0 1 706.56 102.4z" fill="currentColor" p-id="56008"></path><path d="M699.02336 487.79264a30.72 30.72 0 0 1 45.54752 41.10336l-2.10944 2.33472-231.71072 231.71072a30.72 30.72 0 0 1-41.10336 2.10944l-2.33472-2.10944-144.81408-144.81408a30.72 30.72 0 0 1 41.10336-45.54752l2.33472 2.10944 123.10528 123.0848 209.98144-209.98144z" fill="currentColor" p-id="56009"></path></svg>