<?xml version="1.0" standalone="no"?><!DOCTYPE svg PUBLIC "-//W3C//DTD SVG 1.1//EN" "http://www.w3.org/Graphics/SVG/1.1/DTD/svg11.dtd"><svg t="1723701839292" class="icon" viewBox="0 0 1024 1024" version="1.1" xmlns="http://www.w3.org/2000/svg" p-id="53702" xmlns:xlink="http://www.w3.org/1999/xlink" width="48" height="48"><path d="M390.9 378.7c102.3 0 185.2-81 185.2-181s-82.9-181-185.2-181-185.1 81-185.1 181 82.8 181 185.1 181zM749.4 700.3v-141c0-13-10.5-23.5-23.5-23.5s-23.5 10.5-23.5 23.5v164.5c0 6.2 2.5 12.2 6.9 16.6 4.4 4.4 10.4 6.9 16.6 6.9h141c13 0 23.5-10.5 23.5-23.5s-10.5-23.5-23.5-23.5H749.4z m-23.5 305.4c-155.7 0-282-126.2-282-282 0-155.7 126.2-282 282-282 155.7 0 282 126.2 282 282s-126.3 282-282 282z m0 0" p-id="53703" fill="currentColor"></path><path d="M396.6 725.8c0-105.9 52.3-199.7 132.4-256.8-43.6-24.9-91.4-38.7-141.5-38.7-202.7 0-366.9 224.7-366.9 501.8 0 9.2 0.1 18.5 0.5 27.6h479.2c-63.7-57.8-103.7-141.1-103.7-233.9z" p-id="53704" fill="currentColor"></path></svg>