<?xml version="1.0" standalone="no"?><!DOCTYPE svg PUBLIC "-//W3C//DTD SVG 1.1//EN" "http://www.w3.org/Graphics/SVG/1.1/DTD/svg11.dtd"><svg t="1723109543491" class="icon" viewBox="0 0 1024 1024" version="1.1" xmlns="http://www.w3.org/2000/svg" p-id="4558" xmlns:xlink="http://www.w3.org/1999/xlink" width="64" height="64"><path d="M702.82 250.65c-63.75-63.75-148.52-98.86-238.68-98.86s-174.93 35.11-238.68 98.86-98.86 148.52-98.86 238.68 35.11 174.93 98.86 238.68 148.52 98.87 238.68 98.87 174.93-35.11 238.68-98.87 98.86-148.52 98.86-238.68-35.11-174.93-98.86-238.68z" fill="#B2D868" opacity=".6" p-id="4559"></path><path d="M464.14 418.8c-8.35 0-15.11-6.77-15.11-15.11v-35.27c0-8.35 6.77-15.11 15.11-15.11s15.11 6.77 15.11 15.11v35.27c0 8.34-6.76 15.11-15.11 15.11z" fill="#3F2704" p-id="4560"></path><path d="M403.58 443.88c-3.87 0-7.74-1.48-10.69-4.43l-9.97-9.97c-5.9-5.9-5.9-15.47 0-21.37s15.47-5.9 21.37 0l9.97 9.97c5.9 5.9 5.9 15.47 0 21.37a15.012 15.012 0 0 1-10.68 4.43zM393.61 574.97c-3.87 0-7.74-1.48-10.69-4.43-5.9-5.9-5.9-15.47 0-21.37l9.97-9.97c5.9-5.9 15.47-5.9 21.37 0s5.9 15.47 0 21.37l-9.97 9.97a15.028 15.028 0 0 1-10.68 4.43zM534.67 574.97c-3.87 0-7.74-1.48-10.69-4.43l-9.97-9.97c-5.9-5.9-5.9-15.47 0-21.38s15.47-5.9 21.37 0l9.97 9.97c5.9 5.9 5.9 15.47 0 21.38-2.94 2.96-6.81 4.43-10.68 4.43zM524.7 443.88c-3.87 0-7.74-1.48-10.69-4.43-5.9-5.9-5.9-15.47 0-21.37l9.97-9.97c5.9-5.9 15.47-5.9 21.37 0s5.9 15.47 0 21.37l-9.97 9.97c-2.94 2.96-6.81 4.43-10.68 4.43z" fill="#9ECE29" p-id="4561"></path><path d="M378.49 504.44h-35.27c-8.35 0-15.11-6.77-15.11-15.11s6.77-15.11 15.11-15.11h35.27c8.35 0 15.11 6.77 15.11 15.11s-6.76 15.11-15.11 15.11zM585.05 504.44h-35.27c-8.35 0-15.11-6.77-15.11-15.11s6.77-15.11 15.11-15.11h35.27c8.35 0 15.11 6.77 15.11 15.11s-6.76 15.11-15.11 15.11z" fill="#3F2704" p-id="4562"></path><path d="M544.75 151.78c-12.93 0-26.46 0.86-40.22 2.5 167.14 20.03 297.16 162.59 297.16 335.04 0 172.45-130.02 315.01-297.16 335.04 13.76 1.64 27.29 2.5 40.22 2.5 186.12 0 337.54-151.42 337.54-337.54S730.87 151.78 544.75 151.78z" fill="#7A4500" opacity=".25" p-id="4563"></path><path d="M511.98 823.35c-7.36 0-13.81-5.39-14.93-12.89-1.23-8.26 4.47-15.95 12.72-17.17 72.09-10.73 138.28-47.1 186.37-102.41 48.56-55.85 75.31-127.43 75.31-201.54 0-54.03-14.21-107.16-41.1-153.65-4.18-7.23-1.71-16.47 5.51-20.65s16.47-1.71 20.65 5.51c29.55 51.08 45.17 109.45 45.17 168.78 0 81.4-29.38 160.02-82.73 221.38-52.82 60.74-125.52 100.69-204.73 112.48-0.75 0.1-1.5 0.16-2.24 0.16zM658.88 247.45c-3.18 0-6.39-1-9.13-3.08a308.51 308.51 0 0 0-36.73-23.96c-7.3-4.05-9.93-13.25-5.88-20.55 4.05-7.3 13.25-9.93 20.55-5.88 14 7.77 27.57 16.62 40.34 26.32 6.65 5.05 7.95 14.53 2.9 21.18-2.97 3.91-7.48 5.97-12.05 5.97z" fill="#996930" p-id="4564"></path><path d="M573.25 200.94c-1.7 0-3.42-0.29-5.11-0.9C534.85 188.07 499.87 182 464.15 182c-8.35 0-15.11-6.77-15.11-15.11s6.77-15.11 15.11-15.11c39.21 0 77.64 6.67 114.22 19.82 7.85 2.82 11.93 11.48 9.11 19.34-2.23 6.17-8.04 10-14.23 10z" fill="#996930" p-id="4565"></path><path d="M485.78 513.03c0 11.95-9.69 21.64-21.64 21.64-11.95 0-21.64-9.69-21.64-21.64 0-11.95 9.69-8.66 21.64-8.66 11.95 0 21.64-3.29 21.64 8.66z" fill="#FF4E00" p-id="4566"></path><path d="M464.14 549.79c-20.27 0-36.75-16.49-36.75-36.75 0-7.54 2.34-13.58 6.95-17.95 7.32-6.93 16.65-6.43 24.15-6.03 1.87 0.1 3.81 0.21 5.65 0.21 1.84 0 3.78-0.1 5.65-0.21 7.5-0.4 16.83-0.91 24.15 6.03 4.61 4.37 6.95 10.41 6.95 17.95 0 20.26-16.49 36.75-36.75 36.75z m-0.98-30.31c0.64 0.1 1.32 0.1 1.97 0-0.66 0.01-1.33 0.01-1.97 0z m-5.54-6.77z m13.03 0z" fill="#FF4E00" p-id="4567"></path><path d="M464.14 328.11c-8.35 0-15.11-6.77-15.11-15.11v-20.15c0-8.35 6.77-15.11 15.11-15.11s15.11 6.77 15.11 15.11V313c0 8.35-6.76 15.11-15.11 15.11zM339.46 379.76c-3.87 0-7.74-1.48-10.69-4.43l-14.25-14.25c-5.9-5.9-5.9-15.47 0-21.37s15.47-5.9 21.37 0l14.25 14.25c5.9 5.9 5.9 15.47 0 21.37a15.07 15.07 0 0 1-10.68 4.43zM287.81 504.44h-20.15c-8.35 0-15.11-6.77-15.11-15.11s6.77-15.11 15.11-15.11h20.15c8.35 0 15.11 6.77 15.11 15.11s-6.76 15.11-15.11 15.11zM325.21 643.38c-3.87 0-7.74-1.48-10.69-4.43-5.9-5.9-5.9-15.47 0-21.37l14.25-14.25c5.9-5.9 15.47-5.9 21.37 0s5.9 15.47 0 21.37l-14.25 14.25a15.07 15.07 0 0 1-10.68 4.43zM464.14 700.92c-8.35 0-15.11-6.77-15.11-15.11v-20.15c0-8.35 6.77-15.11 15.11-15.11s15.11 6.77 15.11 15.11v20.15c0 8.35-6.76 15.11-15.11 15.11zM603.07 643.38c-3.87 0-7.74-1.48-10.69-4.43l-14.25-14.25c-5.9-5.9-5.9-15.47 0-21.37s15.47-5.9 21.37 0l14.25 14.25c5.9 5.9 5.9 15.47 0 21.37a15.036 15.036 0 0 1-10.68 4.43zM660.62 504.44h-20.15c-8.35 0-15.11-6.77-15.11-15.11s6.77-15.11 15.11-15.11h20.15c8.35 0 15.11 6.77 15.11 15.11s-6.76 15.11-15.11 15.11zM588.82 379.76c-3.87 0-7.74-1.48-10.69-4.43-5.9-5.9-5.9-15.47 0-21.37l14.25-14.25c5.9-5.9 15.47-5.9 21.37 0s5.9 15.47 0 21.37l-14.25 14.25a15.036 15.036 0 0 1-10.68 4.43z" fill="#9ECE29" p-id="4568"></path><path d="M196.77 826.87c-3.87 0-7.74-1.48-10.69-4.43l-28.5-28.5c-5.9-5.9-5.9-15.47 0-21.37 6.66-6.66 15.52-10.33 24.94-10.33s18.28 3.67 24.94 10.33l3.56 3.56 39.19-39.19c5.9-5.9 15.47-5.9 21.37 0s5.9 15.47 0 21.38l-49.8 49.8-0.07 0.07-0.07 0.07-14.18 14.18a15.051 15.051 0 0 1-10.69 4.43z" fill="#3F2704" p-id="4569"></path><path d="M786.57 826.87c-3.87 0-7.74-1.48-10.69-4.43l-14.18-14.18-0.07-0.07-0.07-0.07-49.8-49.8c-5.9-5.9-5.9-15.47 0-21.38s15.47-5.9 21.37 0l39.19 39.19 3.56-3.56c6.66-6.66 15.52-10.33 24.94-10.33s18.28 3.67 24.94 10.33c5.9 5.9 5.9 15.47 0 21.37l-28.5 28.5a15.034 15.034 0 0 1-10.69 4.43z" fill="#3F2704" p-id="4570"></path><path d="M401.97 887.33c-4.6 0-9.13-2.09-12.1-6.05-5.01-6.68-3.65-16.15 3.02-21.16l12.99-9.75-8.81-61.67c-1.18-8.26 4.56-15.92 12.82-17.1 8.27-1.18 15.92 4.56 17.1 12.82l10.08 70.53c0.78 5.46-1.48 10.92-5.89 14.23l-20.15 15.11a14.975 14.975 0 0 1-9.06 3.04z" fill="#3F2704" p-id="4571"></path><path d="M522.85 887.33c-3.16 0-6.34-0.99-9.06-3.02l-20.15-15.11a15.106 15.106 0 0 1-5.89-14.23l10.08-70.53c1.18-8.26 8.83-14.01 17.1-12.82 8.26 1.18 14 8.84 12.82 17.1l-8.81 61.67 12.99 9.75c6.68 5.01 8.03 14.48 3.02 21.16-2.96 3.94-7.5 6.03-12.1 6.03z" fill="#3F2704" p-id="4572"></path></svg>