<?xml version="1.0" standalone="no"?><!DOCTYPE svg PUBLIC "-//W3C//DTD SVG 1.1//EN" "http://www.w3.org/Graphics/SVG/1.1/DTD/svg11.dtd"><svg t="1731384168936" class="icon" viewBox="0 0 1024 1024" version="1.1" xmlns="http://www.w3.org/2000/svg" p-id="24980" xmlns:xlink="http://www.w3.org/1999/xlink" width="32" height="32"><path d="M513.28 970.88A466.987 466.987 0 0 1 416.427 960a455.253 455.253 0 0 1-294.614-206.933A461.013 461.013 0 0 1 238.08 144.213 450.347 450.347 0 0 1 367.36 76.8a53.547 53.547 0 0 1 55.893 13.867 52.693 52.693 0 0 1 11.307 55.04 253.867 253.867 0 0 0 3.2 187.306 253.653 253.653 0 0 0 430.08 64 51.627 51.627 0 0 1 53.333-17.706 53.12 53.12 0 0 1 39.894 42.666 458.667 458.667 0 0 1-448 550.827zM367.147 144.853a394.667 394.667 0 0 0-192 574.507A394.667 394.667 0 0 0 900.48 453.973a320 320 0 0 1-189.653 96.214 320 320 0 0 1-333.867-192 320 320 0 0 1-9.813-213.334z" p-id="24981"></path></svg>