<?xml version="1.0" standalone="no"?><!DOCTYPE svg PUBLIC "-//W3C//DTD SVG 1.1//EN" "http://www.w3.org/Graphics/SVG/1.1/DTD/svg11.dtd"><svg t="1731401709338" class="icon" viewBox="0 0 1024 1024" version="1.1" xmlns="http://www.w3.org/2000/svg" p-id="27614" xmlns:xlink="http://www.w3.org/1999/xlink" width="32" height="32"><path d="M974.890667 464.981333h-80.341334c-27.52 0-49.109333 20.693333-49.109333 47.061334 0 26.325333 21.589333 47.018667 49.109333 47.018666h80.341334c27.52 0 49.109333-20.693333 49.109333-47.018666 0-26.368-21.589333-47.061333-49.109333-47.061334zM129.450667 464.981333H49.066667c-27.477333 0-49.109333 20.693333-49.109334 47.061334 0 26.325333 21.632 47.018667 49.109334 47.018666h80.341333c27.52 0 49.109333-20.693333 49.109333-47.018666 0-26.368-21.589333-47.061333-49.109333-47.061334zM559.018667 49.109333C559.018667 21.632 538.368 0 512 0c-26.368 0-47.018667 21.632-47.018667 49.109333v80.341334c0 27.52 20.650667 49.109333 47.018667 49.109333 26.368 0 47.018667-21.589333 47.018667-49.109333V49.066667zM559.018667 894.549333c0-27.52-20.650667-49.152-47.018667-49.152-26.368 0-47.018667 21.632-47.018667 49.152v80.298667c0 27.52 20.650667 49.152 47.018667 49.152 26.368 0 47.018667-21.632 47.018667-49.152v-80.298667zM872.618667 217.941333c19.498667-19.541333 20.053333-49.322667 1.493333-67.968a45.696 45.696 0 0 0-32.597333-13.397333h-1.152a50.645333 50.645333 0 0 0-34.218667 14.933333l-56.746667 56.746667c-9.472 9.472-14.805333 21.717333-15.018666 34.432a46.037333 46.037333 0 0 0 46.08 46.933333h1.194666c12.714667-0.384 24.832-5.674667 34.218667-14.933333l56.746667-56.746667zM274.730667 815.701333c19.413333-19.498667 20.096-49.322667 1.493333-67.925333a45.354667 45.354667 0 0 0-33.706667-13.44 50.645333 50.645333 0 0 0-34.261333 14.933333L151.466667 805.973333c-19.541333 19.541333-20.138667 49.365333-1.536 67.968 8.704 8.661333 20.224 13.397333 32.597333 13.397334h1.152c12.714667-0.341333 24.874667-5.674667 34.218667-14.933334l56.874666-56.746666zM749.269333 815.744l56.746667 56.746667c9.386667 9.386667 21.504 14.677333 34.218667 14.933333 12.8 0.298667 24.832-4.565333 33.749333-13.44 9.002667-9.002667 13.738667-21.034667 13.397333-33.749333a50.645333 50.645333 0 0 0-14.933333-34.218667l-56.746667-56.746667a49.92 49.92 0 0 0-35.328-15.018666 45.994667 45.994667 0 0 0-45.994666 47.274666c0.213333 12.8 5.546667 24.96 14.933333 34.218667zM274.730667 208.213333l-56.746667-56.832a50.005333 50.005333 0 0 0-34.346667-15.061333 45.866667 45.866667 0 0 0-33.621333 13.525333c-18.602667 18.645333-18.005333 48.554667 1.493333 67.968l56.746667 56.746667c9.386667 9.386667 21.504 14.677333 34.218667 14.933333h1.152c12.373333 0 23.936-4.736 32.597333-13.44 18.602667-18.474667 18.048-48.426667-1.493333-67.84zM713.088 310.912A282.538667 282.538667 0 0 0 512 227.584c-75.946667 0-147.370667 29.568-201.088 83.328A282.581333 282.581333 0 0 0 227.584 512c0 75.946667 29.568 147.370667 83.328 201.130667A282.538667 282.538667 0 0 0 512 796.458667c75.946667 0 147.370667-29.610667 201.088-83.328A282.581333 282.581333 0 0 0 796.416 512c0-75.946667-29.568-147.328-83.328-201.088zM512 706.645333A194.773333 194.773333 0 0 1 317.354667 512 194.773333 194.773333 0 0 1 512 317.44 194.773333 194.773333 0 0 1 706.645333 512 194.773333 194.773333 0 0 1 512 706.645333z" p-id="27615"></path></svg>