<?xml version="1.0" standalone="no"?><!DOCTYPE svg PUBLIC "-//W3C//DTD SVG 1.1//EN" "http://www.w3.org/Graphics/SVG/1.1/DTD/svg11.dtd"><svg t="1731384215195" class="icon" viewBox="0 0 1024 1024" version="1.1" xmlns="http://www.w3.org/2000/svg" p-id="31429" xmlns:xlink="http://www.w3.org/1999/xlink" width="32" height="32"><path d="M512 22.755556a34.133333 34.133333 0 0 1 34.133333 34.133333v56.888889a34.133333 34.133333 0 0 1-68.266666 0V56.888889A34.133333 34.133333 0 0 1 512 22.755556zM193.422222 512a318.577778 318.577778 0 1 1 637.155556 0A318.577778 318.577778 0 0 1 193.422222 512zM512 261.688889a250.311111 250.311111 0 1 0 0 500.622222 250.311111 250.311111 0 0 0 0-500.622222zM546.133333 910.222222a34.133333 34.133333 0 1 0-68.266666 0v56.888889a34.133333 34.133333 0 1 0 68.266666 0v-56.888889zM877.454222 146.545778a34.133333 34.133333 0 0 1 0 48.241778l-56.888889 56.888888a34.133333 34.133333 0 0 1-48.241777-48.241777l56.888888-56.888889a34.133333 34.133333 0 0 1 48.241778 0zM251.676444 820.565333a34.133333 34.133333 0 0 0-48.241777-48.241777l-56.888889 56.888888a34.133333 34.133333 0 0 0 48.241778 48.241778l56.888888-56.888889zM876.088889 512a34.133333 34.133333 0 0 1 34.133333-34.133333h56.888889a34.133333 34.133333 0 1 1 0 68.266666h-56.888889a34.133333 34.133333 0 0 1-34.133333-34.133333zM56.888889 477.866667a34.133333 34.133333 0 0 0 0 68.266666h56.888889a34.133333 34.133333 0 0 0 0-68.266666H56.888889zM772.323556 772.323556a34.133333 34.133333 0 0 1 48.241777 0l56.888889 56.888888a34.133333 34.133333 0 0 1-48.241778 48.241778l-56.888888-56.888889a34.133333 34.133333 0 0 1 0-48.241777zM194.787556 146.545778a34.133333 34.133333 0 1 0-48.241778 48.241778l56.888889 56.888888a34.133333 34.133333 0 0 0 48.241777-48.241777l-56.888888-56.888889z" p-id="31430"></path></svg>