<?xml version="1.0" standalone="no"?><!DOCTYPE svg PUBLIC "-//W3C//DTD SVG 1.1//EN" "http://www.w3.org/Graphics/SVG/1.1/DTD/svg11.dtd"><svg t="1723700995209" class="icon" viewBox="0 0 1024 1024" version="1.1" xmlns="http://www.w3.org/2000/svg" p-id="45976" xmlns:xlink="http://www.w3.org/1999/xlink" width="16" height="16"><path d="M245.333333 128h533.333334A117.333333 117.333333 0 0 1 896 245.333333v533.333334A117.333333 117.333333 0 0 1 778.666667 896H245.333333A117.333333 117.333333 0 0 1 128 778.666667V245.333333A117.333333 117.333333 0 0 1 245.333333 128z m0 64c-29.44 0-53.333333 23.893333-53.333333 53.333333v533.333334c0 29.44 23.893333 53.333333 53.333333 53.333333h533.333334c29.44 0 53.333333-23.893333 53.333333-53.333333V245.333333c0-29.44-23.893333-53.333333-53.333333-53.333333H245.333333z" fill="currentColor" p-id="45977"></path></svg>