<?xml version="1.0" standalone="no"?><!DOCTYPE svg PUBLIC "-//W3C//DTD SVG 1.1//EN" "http://www.w3.org/Graphics/SVG/1.1/DTD/svg11.dtd"><svg t="1723708139220" class="icon" viewBox="0 0 1024 1024" version="1.1" xmlns="http://www.w3.org/2000/svg" p-id="21558" xmlns:xlink="http://www.w3.org/1999/xlink" width="16" height="16"><path d="M826.816 992H197.184a126.624 126.624 0 0 1-103.84-53.152 126.592 126.592 0 0 1-17.568-115.328l22.528-67.616a193.088 193.088 0 0 1 158.912-129.888C324.192 617.824 422.752 608 512 608c89.216 0 187.808 9.824 254.816 18.016a193.024 193.024 0 0 1 158.88 129.888l22.528 67.616a126.528 126.528 0 0 1-17.6 115.328A126.56 126.56 0 0 1 826.816 992zM512 672c-86.016 0-181.792 9.536-246.976 17.568a128.64 128.64 0 0 0-105.984 86.592l-22.528 67.584c-6.592 19.776-3.392 40.768 8.768 57.664S176.352 928 197.184 928h629.632a63.36 63.36 0 0 0 51.904-26.56c12.192-16.896 15.36-37.92 8.8-57.696l-22.528-67.584a128.64 128.64 0 0 0-105.984-86.592C693.792 681.536 597.984 672 512 672zM512 576c-149.984 0-272-122.016-272-272S362.016 32 512 32c149.984 0 272 122.016 272 272S661.984 576 512 576z m0-480c-114.688 0-208 93.312-208 208S397.312 512 512 512s208-93.312 208-208S626.688 96 512 96z" p-id="21559" fill="currentColor"></path><path d="M385.28 337.28c-17.376 0-31.616-13.92-32-31.36a158.848 158.848 0 0 1 44.608-114.048 158.976 158.976 0 0 1 112.16-49.12c17.984 0.32 32.288 13.696 32.64 31.36a32 32 0 0 1-31.36 32.64 95.424 95.424 0 0 0-67.296 29.44 95.392 95.392 0 0 0-26.752 68.448 32 32 0 0 1-31.36 32.64h-0.64z" p-id="21560" fill="currentColor"></path></svg>