<?xml version="1.0" standalone="no"?><!DOCTYPE svg PUBLIC "-//W3C//DTD SVG 1.1//EN" "http://www.w3.org/Graphics/SVG/1.1/DTD/svg11.dtd"><svg t="1723449025974" class="icon" viewBox="0 0 1024 1024" version="1.1" xmlns="http://www.w3.org/2000/svg" p-id="127495" xmlns:xlink="http://www.w3.org/1999/xlink" width="16" height="16"><path d="M825.3 933H197.1c-73.5 0-133.2-59.8-133.2-133.2V231.5c0-73.5 59.8-133.2 133.2-133.2h628.2c73.5 0 133.2 59.8 133.2 133.2v568.3c0 73.4-59.8 133.2-133.2 133.2zM197.1 187.7c-24.1 0-43.8 19.6-43.8 43.8v568.3c0 24.1 19.6 43.8 43.8 43.8h628.2c24.1 0 43.8-19.6 43.8-43.8V231.5c0-24.1-19.6-43.8-43.8-43.8H197.1z" fill="currentColor" p-id="127496"></path><path d="M246.1 286m-45.6 0a45.6 45.6 0 1 0 91.2 0 45.6 45.6 0 1 0-91.2 0Z" fill="currentColor" p-id="127497"></path><path d="M368.5 286m-45.6 0a45.6 45.6 0 1 0 91.2 0 45.6 45.6 0 1 0-91.2 0Z" fill="currentColor" p-id="127498"></path><path d="M490.2 286m-45.6 0a45.6 45.6 0 1 0 91.2 0 45.6 45.6 0 1 0-91.2 0Z" fill="currentColor" p-id="127499"></path><path d="M913.8 463.7H108.6c-24.7 0-44.7-20-44.7-44.7 0-24.7 20-44.7 44.7-44.7h805.2c24.7 0 44.7 20 44.7 44.7 0 24.6-20 44.7-44.7 44.7z" fill="currentColor" p-id="127500"></path></svg>